<svg width="90" height="90" viewBox="0 0 90 90" fill="none" xmlns="http://www.w3.org/2000/svg">
<path d="M51.6401 38.93C60.4201 39.0833 67.6234 39.1 73.2501 38.98C83.2701 38.75 83.4001 50.68 75.0001 50.81C67.0801 50.9367 59.1768 51.01 51.2901 51.03C51.2158 51.03 51.1446 51.0606 51.0921 51.1149C51.0396 51.1693 51.0101 51.2431 51.0101 51.32C51.0034 58.38 50.9968 65.4533 50.9901 72.54C50.9901 75.2267 50.6801 77.1467 50.0601 78.3C47.4101 83.26 39.2701 81.34 39.1801 74.75C39.0668 66.99 38.9934 59.29 38.9601 51.65C38.9601 51.4776 38.8916 51.3123 38.7697 51.1904C38.6478 51.0685 38.4825 51 38.3101 51C31.4101 51 24.4668 50.9967 17.4801 50.99C14.7801 50.99 12.8534 50.68 11.7001 50.06C8.0201 48.07 8.1401 41.5 12.1301 39.69C13.1034 39.2433 14.7168 39.0167 16.9701 39.01C24.1368 38.9967 31.2568 38.9933 38.3301 39C38.4181 39 38.5052 38.9824 38.5865 38.9482C38.6678 38.9141 38.7417 38.864 38.8039 38.8008C38.8661 38.7377 38.9154 38.6627 38.9491 38.5802C38.9828 38.4977 39.0001 38.4093 39.0001 38.32C38.9934 31.3133 39.0001 24.26 39.0201 17.16C39.0268 14.5067 39.3834 12.6333 40.0901 11.54C41.7801 8.95001 45.3401 8.22001 47.9901 9.84001C50.1434 11.16 51.1501 13.38 51.0101 16.5C50.8568 19.8533 50.8868 27.15 51.1001 38.39C51.1068 38.7433 51.2868 38.9233 51.6401 38.93Z" fill="white"/>
</svg>
