<svg width="16" height="20" viewBox="0 0 16 20" fill="none" xmlns="http://www.w3.org/2000/svg">
<g clip-path="url(#clip0_22_7566)">
<path d="M14.6671 0H1.33246C0.873282 0 0.5 0.360767 0.5 0.805012V19.1931C0.5 19.5539 0.730782 19.8562 1.08775 19.962C1.4476 20.0677 1.81225 19.9444 2.02192 19.6448L7.87981 11.2952C7.95466 11.1876 8.04487 11.1876 8.11971 11.2952L13.9781 19.6448C14.1383 19.8729 14.3893 20 14.6584 20C14.7419 20 14.8268 19.9879 14.9118 19.962C15.2692 19.8562 15.5 19.5539 15.5 19.1931V0.805012C15.5 0.360777 15.1263 0 14.6671 0ZM10.5456 2.85463H9.5145C9.3245 2.85463 9.17048 2.70624 9.17048 2.52261C9.17048 2.33897 9.3245 2.19059 9.5145 2.19059H10.5456C10.7356 2.19059 10.8896 2.33897 10.8896 2.52261C10.8896 2.70624 10.7356 2.85463 10.5456 2.85463ZM8.19553 2.85463H3.24781C3.05781 2.85463 2.90379 2.70624 2.90379 2.52261C2.90379 2.33897 3.05781 2.19059 3.24781 2.19059H8.19553C8.38553 2.19059 8.53955 2.33897 8.53955 2.52261C8.53955 2.70624 8.38553 2.85463 8.19553 2.85463Z" fill="white"/>
</g>
<defs>
<clipPath id="clip0_22_7566">
<rect width="15" height="20" fill="white" transform="translate(0.5)"/>
</clipPath>
</defs>
</svg>
