<svg width="32" height="32" viewBox="0 0 32 32" fill="none" xmlns="http://www.w3.org/2000/svg">
<g clip-path="url(#clip0_130_1644)">
<path d="M10.7032 25.7664C10.7032 25.8987 10.5548 26.0046 10.3677 26.0046C10.1548 26.0244 10.0065 25.9185 10.0065 25.7664C10.0065 25.634 10.1548 25.5281 10.3419 25.5281C10.5355 25.5083 10.7032 25.6142 10.7032 25.7664ZM8.69677 25.4686C8.65161 25.6009 8.78065 25.7531 8.97419 25.7928C9.14194 25.859 9.33548 25.7928 9.37419 25.6605C9.4129 25.5281 9.29032 25.376 9.09677 25.3164C8.92903 25.2701 8.74194 25.3363 8.69677 25.4686ZM11.5484 25.3561C11.3613 25.4024 11.2323 25.5281 11.2516 25.6803C11.271 25.8127 11.4387 25.8987 11.6323 25.8524C11.8194 25.8061 11.9484 25.6803 11.929 25.548C11.9097 25.4223 11.7355 25.3363 11.5484 25.3561ZM15.7935 0C6.84516 0 0 6.96764 0 16.1453C0 23.4835 4.50323 29.763 10.9355 31.973C11.7613 32.1252 12.0516 31.6025 12.0516 31.1724C12.0516 30.7621 12.0323 28.4992 12.0323 27.1096C12.0323 27.1096 7.51613 28.1021 6.56774 25.1377C6.56774 25.1377 5.83226 23.2122 4.77419 22.7159C4.77419 22.7159 3.29677 21.6771 4.87742 21.6969C4.87742 21.6969 6.48387 21.8293 7.36774 23.4041C8.78064 25.9582 11.1484 25.2238 12.071 24.787C12.2194 23.7283 12.6387 22.9939 13.1032 22.5571C9.49677 22.1469 5.85806 21.6109 5.85806 15.2454C5.85806 13.4258 6.34839 12.5126 7.38065 11.348C7.2129 10.9179 6.66452 9.14461 7.54839 6.85515C8.89677 6.42505 12 8.64172 12 8.64172C13.2903 8.27117 14.6774 8.07928 16.0516 8.07928C17.4258 8.07928 18.8129 8.27117 20.1032 8.64172C20.1032 8.64172 23.2065 6.41843 24.5548 6.85515C25.4387 9.15122 24.8903 10.9179 24.7226 11.348C25.7548 12.5192 26.3871 13.4324 26.3871 15.2454C26.3871 21.6308 22.5871 22.1403 18.9806 22.5571C19.5742 23.0799 20.0774 24.0724 20.0774 25.6274C20.0774 27.8573 20.0581 30.6166 20.0581 31.1592C20.0581 31.5893 20.3548 32.112 21.1742 31.9598C27.6258 29.763 32 23.4835 32 16.1453C32 6.96764 24.7419 0 15.7935 0ZM6.27097 22.8218C6.1871 22.888 6.20645 23.0402 6.31613 23.1659C6.41935 23.2718 6.56774 23.3181 6.65161 23.2321C6.73548 23.1659 6.71613 23.0137 6.60645 22.888C6.50323 22.7821 6.35484 22.7358 6.27097 22.8218ZM5.57419 22.2858C5.52903 22.3719 5.59355 22.4777 5.72258 22.5439C5.82581 22.6101 5.95484 22.5902 6 22.4976C6.04516 22.4116 5.98064 22.3057 5.85161 22.2395C5.72258 22.1998 5.61935 22.2197 5.57419 22.2858ZM7.66452 24.6415C7.56129 24.7275 7.6 24.926 7.74839 25.0517C7.89677 25.2039 8.08387 25.2238 8.16774 25.1179C8.25161 25.0319 8.2129 24.8334 8.08387 24.7076C7.94194 24.5555 7.74839 24.5356 7.66452 24.6415ZM6.92903 23.6688C6.82581 23.735 6.82581 23.907 6.92903 24.0592C7.03226 24.2114 7.20645 24.2775 7.29032 24.2114C7.39355 24.1254 7.39355 23.9533 7.29032 23.8011C7.2 23.6489 7.03226 23.5828 6.92903 23.6688Z" fill="white"/>
</g>
<defs>
<clipPath id="clip0_130_1644">
<rect width="32" height="32" fill="white"/>
</clipPath>
</defs>
</svg>
