<svg width="21" height="19" viewBox="0 0 21 19" fill="none" xmlns="http://www.w3.org/2000/svg">
<g clip-path="url(#clip0_22_7559)">
<path d="M20.4024 9.87145C20.1817 10.47 19.6351 10.8568 19.0091 10.8568H18.4998V18.3214C18.4998 18.696 18.2011 19 17.8331 19H13.8333V14.2498C13.8333 12.3789 12.3381 10.8568 10.5001 10.8568C8.66222 10.8568 7.16696 12.3789 7.16696 14.2498V19H3.16713C2.79915 19 2.5005 18.696 2.5005 18.3214V10.8568H1.99052C1.36455 10.8568 0.817906 10.4707 0.597249 9.87213C0.376593 9.2736 0.538585 8.61536 1.01056 8.19598L8.79622 0.690647C9.75217 -0.230216 11.2488 -0.230216 12.2041 0.690647L20.0084 8.21362C20.4604 8.61468 20.623 9.27292 20.4024 9.87145Z" fill="white"/>
</g>
<defs>
<clipPath id="clip0_22_7559">
<rect width="20" height="19" fill="white" transform="translate(0.5)"/>
</clipPath>
</defs>
</svg>
