<svg width="19" height="18" viewBox="0 0 19 18" fill="none" xmlns="http://www.w3.org/2000/svg">
<g clip-path="url(#clip0_22_7561)">
<path d="M18.4053 0.244246C18.398 0.208678 18.3807 0.175941 18.3554 0.149872C18.3301 0.123803 18.298 0.105482 18.2627 0.0970571C15.9094 -0.47883 10.4719 1.57337 7.52599 4.52077C7.00056 5.04243 6.52155 5.60893 6.09441 6.21384C5.18596 6.13341 4.27751 6.20057 3.50326 6.53838C1.31871 7.50074 0.682678 10.0118 0.505488 11.092C0.495437 11.1511 0.499228 11.2118 0.516563 11.2692C0.533897 11.3266 0.564302 11.3792 0.605386 11.4228C0.646471 11.4665 0.697114 11.5 0.753333 11.5208C0.809552 11.5415 0.869813 11.5489 0.929378 11.5424L4.43742 11.1551C4.43993 11.4199 4.45588 11.6843 4.48523 11.9474C4.50289 12.1301 4.58392 12.3008 4.71426 12.43L6.07271 13.7864C6.20185 13.9167 6.37238 13.9978 6.55486 14.0157C6.81626 14.0449 7.07896 14.0609 7.34197 14.0635L6.95706 17.5703C6.95064 17.6299 6.9581 17.6902 6.97885 17.7464C6.99961 17.8027 7.0331 17.8533 7.0767 17.8944C7.12029 17.9355 7.17281 17.9659 7.23013 17.9833C7.28745 18.0007 7.34801 18.0046 7.40706 17.9946C8.48427 17.8217 10.9975 17.1851 11.9533 14.9985C12.2908 14.2236 12.36 13.3187 12.282 12.4139C12.8878 11.9863 13.4553 11.5067 13.978 10.9806C16.9331 8.03762 18.9718 2.7167 18.4053 0.244246ZM11.0296 7.46978C10.7598 7.19986 10.576 6.85591 10.5014 6.48142C10.4269 6.10694 10.4651 5.71875 10.611 5.36595C10.7569 5.01315 11.0041 4.7116 11.3213 4.49943C11.6385 4.28727 12.0114 4.17402 12.3929 4.17402C12.7744 4.17402 13.1473 4.28727 13.4645 4.49943C13.7817 4.7116 14.0289 5.01315 14.1748 5.36595C14.3207 5.71875 14.3589 6.10694 14.2843 6.48142C14.2098 6.85591 14.026 7.19986 13.7562 7.46978C13.5772 7.64913 13.3647 7.79142 13.1308 7.8885C12.8969 7.98558 12.6461 8.03555 12.3929 8.03555C12.1397 8.03555 11.8889 7.98558 11.655 7.8885C11.4211 7.79142 11.2086 7.64913 11.0296 7.46978Z" fill="white"/>
<path d="M5.98015 14.7689C5.75997 14.9897 5.4068 15.0757 4.9817 15.1493C4.02664 15.3122 3.18328 14.4862 3.35484 13.5198C3.42034 13.1534 3.614 12.6399 3.73454 12.5192C3.76088 12.4934 3.77842 12.4599 3.78466 12.4235C3.79089 12.3871 3.78551 12.3496 3.76927 12.3164C3.75304 12.2833 3.72678 12.2561 3.69421 12.2387C3.66165 12.2213 3.62445 12.2146 3.58788 12.2196C3.05381 12.285 2.55694 12.5274 2.17639 12.9081C1.23178 13.8544 1.14258 17.3656 1.14258 17.3656C1.14258 17.3656 4.65263 17.2763 5.59724 16.3301C5.97881 15.9495 6.22125 15.4514 6.28551 14.9161C6.30038 14.748 6.09587 14.6479 5.98015 14.7689Z" fill="white"/>
</g>
<defs>
<clipPath id="clip0_22_7561">
<rect width="18" height="18" fill="white" transform="translate(0.5)"/>
</clipPath>
</defs>
</svg>
