<svg width="25" height="22" viewBox="0 0 25 22" fill="none" xmlns="http://www.w3.org/2000/svg">
<g clip-path="url(#clip0_22_7564)">
<path d="M22.1386 12.2288C22.3533 12.1146 22.5337 11.939 22.6599 11.7219C22.786 11.5048 22.8529 11.2547 22.8529 10.9996C22.8529 10.7445 22.786 10.4944 22.6599 10.2773C22.5337 10.0602 22.3533 9.88467 22.1386 9.77033L4.02024 0.14534C3.79559 0.0259129 3.54308 -0.0214686 3.29352 0.00897579C3.04395 0.0394202 2.80812 0.146374 2.61479 0.316791C2.42146 0.487208 2.27899 0.71372 2.20476 0.968694C2.13054 1.22367 2.12775 1.49609 2.19676 1.75272L4.04612 8.62769C4.12348 8.91505 4.28684 9.16779 4.51149 9.34767C4.73613 9.52755 5.00981 9.62474 5.29111 9.62461H11.2068C11.55 9.62461 11.8791 9.76949 12.1218 10.0273C12.3645 10.2852 12.5009 10.6349 12.5009 10.9996C12.5009 11.3643 12.3645 11.714 12.1218 11.9719C11.8791 12.2297 11.55 12.3746 11.2068 12.3746H5.29111C5.00981 12.3744 4.73613 12.4717 4.51149 12.6515C4.28684 12.8314 4.12348 13.0841 4.04612 13.3715L2.19805 20.2465C2.12891 20.503 2.13152 20.7754 2.20558 21.0304C2.27963 21.2854 2.42193 21.512 2.6151 21.6826C2.80828 21.8531 3.04399 21.9602 3.2935 21.9909C3.543 22.0215 3.79552 21.9744 4.02024 21.8553L22.1386 12.2303V12.2288Z" fill="#838383"/>
</g>
<defs>
<clipPath id="clip0_22_7564">
<rect width="24" height="22" fill="white" transform="translate(0.5)"/>
</clipPath>
</defs>
</svg>
