<svg width="90" height="92" viewBox="0 0 90 92" fill="none" xmlns="http://www.w3.org/2000/svg">
<path d="M66.6645 10.2827C66.6214 9.91721 66.277 9.71451 65.6312 9.67454C65.1469 9.64408 64.6378 9.63076 64.1039 9.63457C64.0522 9.63468 64.0014 9.64612 63.9559 9.66784C63.9104 9.68957 63.8717 9.72091 63.8432 9.75907C63.8148 9.79724 63.7974 9.84104 63.7928 9.88657C63.7881 9.9321 63.7963 9.97793 63.8165 10.02C64.1696 10.7528 64.8025 11.2001 65.7152 11.3618C65.7733 11.3714 65.8239 11.3695 65.8669 11.3561C65.9315 11.3352 65.9735 11.3028 65.9929 11.2591" stroke="#151414" stroke-width="2"/>
<path d="M40.7521 1.81474C40.1429 2.00507 39.6177 2.37432 39.1764 2.92248C39.0429 3.08997 39.0892 3.15278 39.3152 3.11091C40.7575 2.84825 42.2148 2.72453 43.6872 2.73976C43.8228 2.74166 43.8831 2.68361 43.868 2.5656C43.8035 2.07264 43.5204 1.68912 43.0188 1.41504" stroke="#151414" stroke-width="2"/>
<path d="M24.5425 53.121C23.9312 53.4217 23.1822 52.9088 22.5859 53.1962" stroke="#292728" stroke-width="2"/>
<path d="M34.2682 34.8186C33.2801 35.2725 34.5329 36.7171 34.5394 37.4994C34.5459 38.7004 34.5771 40.067 34.633 41.5992C34.6395 41.8238 34.7665 41.9608 35.014 42.0103L35.1012 42.0274C35.1382 42.035 35.1766 42.0355 35.2138 42.0289C35.251 42.0223 35.2861 42.0088 35.3167 41.9893C35.3473 41.9698 35.3728 41.9448 35.3913 41.9159C35.4098 41.887 35.421 41.8549 35.4241 41.8219C35.5447 40.579 35.5587 39.2628 35.4661 37.8734C35.4381 37.428 35.6577 37.1968 36.1248 37.1796C36.2303 37.1758 36.3196 37.2082 36.3928 37.2767C36.6544 37.5222 36.6576 37.8877 36.9094 38.0618C37.0429 38.1532 37.1882 38.1789 37.3454 38.1389C37.3959 38.1259 37.442 38.1018 37.4792 38.0689C37.5165 38.0359 37.5437 37.9952 37.5585 37.9505C37.7361 37.428 37.6715 36.7057 38.5498 36.7714C38.6373 36.7787 38.7189 36.8133 38.7799 36.8688C38.8409 36.9243 38.8773 36.9971 38.8823 37.074L39.1084 40.46C39.1107 40.4917 39.1212 40.5225 39.1388 40.5501C39.1565 40.5777 39.181 40.6014 39.2105 40.6195C39.2399 40.6376 39.2736 40.6496 39.3091 40.6546C39.3445 40.6597 39.3807 40.6575 39.4151 40.6485L39.5604 40.6085C39.6737 40.5769 39.7733 40.5149 39.8455 40.4312C39.9177 40.3474 39.9591 40.2458 39.964 40.1403C40.0125 38.9012 39.9221 37.4509 40.2579 36.2803C40.3763 35.8635 40.3246 35.5923 40.1029 35.4666" stroke="#151414" stroke-width="2"/>
<path d="M40.1032 35.4666C40.6198 35.0441 40.5445 34.513 39.8772 33.8735C38.3617 32.4194 36.3974 31.8855 33.9843 32.2719C33.8162 32.2988 33.6643 32.3776 33.5555 32.4941C33.4468 32.6106 33.3882 32.7574 33.3902 32.9085C33.3966 33.548 33.6894 34.1847 34.2685 34.8185" stroke="#7F7F7F" stroke-width="2"/>
<path d="M40.1033 35.4666C38.1885 36.2289 35.7151 36.3089 34.2686 34.8186" stroke="#949393" stroke-width="2"/>
<path d="M56.9486 34.6787C57.2887 34.2371 57.5201 33.6975 57.6428 33.0599C57.6738 32.8998 57.6341 32.7354 57.5319 32.6005C57.4298 32.4655 57.273 32.3704 57.0939 32.3347C54.2911 31.777 52.1191 32.5203 50.5778 34.5644C50.5271 34.632 50.5052 34.7132 50.5158 34.7937C50.5264 34.8742 50.569 34.9488 50.636 35.0041C51.2947 35.5466 52.118 35.8816 53.1061 36.0091" stroke="#7F7F7F" stroke-width="2"/>
<path d="M56.9484 34.6786C55.7666 35.8892 54.8367 35.9605 53.106 36.0091" stroke="#010101" stroke-width="2"/>
<path fill-rule="evenodd" clip-rule="evenodd" d="M65.1947 9.65683C65.8269 9.69673 66.1641 9.89906 66.2063 10.2638C66.4275 10.298 66.6636 10.2961 66.9143 10.2581C67.0197 10.241 67.0798 10.185 67.0945 10.09C67.242 9.17427 67.0808 8.35259 66.6109 7.62495C66.1936 6.9809 65.5161 6.50974 64.5783 6.21146C63.1094 5.7441 61.5774 5.70041 59.9821 6.08038C59.5416 6.18677 59.1412 6.24566 58.7809 6.25706C58.7093 6.2595 58.6385 6.24196 58.578 6.20681C58.5176 6.17166 58.4703 6.12058 58.4426 6.06043C57.4216 3.84331 55.4396 2.13915 52.9487 1.16453C50.2428 0.104416 45.8362 -0.354396 42.9375 0.309599C42.8689 0.325153 42.8055 0.355395 42.7527 0.397761C42.6999 0.440126 42.6592 0.493361 42.634 0.552944C42.6089 0.612527 42.6001 0.6767 42.6083 0.74001C42.6166 0.80332 42.6417 0.863897 42.6815 0.916598L43.0576 1.41246C43.5487 1.68603 43.8258 2.06885 43.889 2.56091C43.9038 2.6787 43.8447 2.73665 43.712 2.73475C42.2705 2.71955 40.8438 2.84304 39.4319 3.10522C39.2106 3.14701 39.1653 3.08432 39.2959 2.91713C39.728 2.36998 40.2422 2.00141 40.8386 1.81142C40.9102 1.59104 40.8122 1.43621 40.5446 1.34691C39.7322 1.07904 36.6944 2.56946 35.9294 3.01403C34.3952 3.90885 32.8168 4.73623 31.1941 5.49617C30.6803 5.73591 30.0839 5.95039 29.4683 6.17179C27.9252 6.72677 26.2611 7.32526 25.4725 8.47418C24.5008 9.88535 25.45 10.7258 26.5191 11.6725C26.5317 11.6836 26.5442 11.6947 26.5568 11.7058C26.6077 11.7511 26.6443 11.8078 26.663 11.8701C26.6817 11.9324 26.6817 11.998 26.6631 12.0603C26.6444 12.1226 26.6078 12.1793 26.5569 12.2247C26.506 12.27 26.4427 12.3024 26.3734 12.3185L26.3521 12.3236C24.3062 12.8116 22.4959 13.2435 21.9037 15.3592C21.2904 17.5535 21.9606 19.3688 23.4842 21.0815C24.4302 22.138 24.456 23.5788 24.4785 24.8436C24.4844 25.1721 24.4901 25.4887 24.5116 25.7837C24.539 26.1541 24.4715 26.5322 24.3093 26.9179C23.7972 28.1414 23.618 29.419 23.7719 30.7508C24.1069 33.6063 24.8213 37.3622 27.8781 38.9496C28.0277 38.8926 28.1658 38.8802 28.2922 38.9125C28.4102 38.9429 28.4945 39.0246 28.5451 39.1576C28.6441 39.4274 28.6378 39.6801 28.5261 39.9156L28.8739 41.3149L29.3891 42.3436L30.2236 44.8201C31.0308 46.8035 32.1656 48.748 33.6281 50.6536C33.7419 50.8037 33.7788 50.9841 33.7388 51.195C33.9474 51.3014 34.1002 51.4353 34.1971 51.5968C34.2498 51.6842 34.2351 51.7602 34.1529 51.8248C32.5723 53.0673 30.8169 53.2516 28.8865 52.3777L24.8814 53.1835C24.8671 53.5337 22.9764 53.554 23 54C23.0389 54.7347 22.1128 55.8545 22 56.5C21.6333 58.6174 24.0437 59.9039 21.6192 60.5992C21.5117 60.6296 21.4727 60.6933 21.5022 60.7902C22.1429 62.8705 23.1428 64.7988 24.5021 66.5752C24.6032 66.7063 24.7339 66.7367 24.894 66.6664C27.2379 65.6261 28.3405 66.4108 30.2394 67.7621C30.3483 67.8396 30.4599 67.9191 30.5745 68.0001C31.6556 68.7638 32.7335 69.5295 33.8083 70.297C35.4647 71.474 35.4868 73.1183 35.1075 74.8367C35.0759 74.9792 35.1307 75.0856 35.2719 75.1558L38.5278 76.7973C38.6269 76.8486 38.6964 76.8258 38.7364 76.7289C39.811 74.0188 42.3818 74.1012 45.1932 74.1914C45.6485 74.206 46.1102 74.2208 46.5728 74.224L46.577 74.224C49.0469 74.2411 50.9008 74.2539 51.8423 76.7688C51.8908 76.898 51.9803 76.9284 52.111 76.86L55.4017 75.1473C55.5176 75.0865 55.5597 74.9972 55.5281 74.8794C55.0982 73.2693 54.9591 72.0126 56.4511 70.8185C57.9558 69.614 59.4847 68.4352 61.0379 67.282C62.6184 66.1107 64.0883 65.8058 65.8775 66.6892C65.966 66.7329 66.0429 66.7196 66.1083 66.6493C67.3933 65.2577 68.1453 63.5509 68.8867 61.8681C69.0426 61.5143 69.1981 61.1615 69.3579 60.813C69.4042 60.7142 69.3684 60.6553 69.2504 60.6363C67.8437 60.3941 67.0313 59.7301 66.5571 58.4676C65.9291 56.7863 65.6646 55.0479 65.7637 53.2525C65.7645 53.2384 65.7691 53.2246 65.777 53.2123C65.785 53.2001 65.7961 53.1898 65.8095 53.1822C65.8228 53.1747 65.838 53.1701 65.8537 53.169C65.8693 53.1678 65.8851 53.1701 65.8996 53.1756L68.536 54.1531C68.6392 54.1911 68.7003 54.2595 68.7193 54.3583C68.7476 54.5013 68.7751 54.6531 68.8036 54.8106C68.9887 55.8331 69.2177 57.0972 69.9901 57.7837C70.0206 57.8106 70.0586 57.8296 70.1002 57.8386C70.1417 57.8477 70.1851 57.8464 70.2259 57.835C70.2667 57.8237 70.3034 57.8026 70.332 57.7739C70.3606 57.7453 70.38 57.7103 70.3884 57.6725C70.5875 56.6837 70.8689 55.3813 72.3103 55.2958C73.8908 55.1989 74.3777 56.6238 74.2955 57.8321C74.2765 58.1095 74.3755 58.1494 74.5926 57.9518L75.0004 57.5785C75.2048 57.3923 75.2691 57.1729 75.1932 56.9202L74.542 54.743L70.8088 54.136C70.3875 54.1705 68.9451 53.8071 68.1542 53.5976C67.4079 53.2275 66.225 52.9707 65.095 52.7253C64.8072 52.6628 64.5228 52.601 64.2499 52.5384C63.5112 52.3686 62.857 52.1921 62.4478 51.9753C62.1154 52.2193 61.7677 52.4163 61.4108 52.5658C59.8489 53.2198 58.1094 52.9645 56.6945 51.7593C56.6613 51.7311 56.6408 51.6929 56.6367 51.6519C56.6326 51.611 56.6453 51.5701 56.6724 51.537L57.7156 50.246C58.3035 49.3208 58.8905 48.4098 59.4763 47.5131C59.887 46.8865 60.1769 46.2149 60.4679 45.5408C60.5845 45.2706 60.7013 45 60.8261 44.7318L61.6353 42.2867C61.64 42.2847 61.6443 42.2826 61.6483 42.2804C61.6048 42.4231 61.6278 42.4604 62.0241 41.4688C62.0395 39.6836 62.5173 39.1576 64.101 38.3084C64.4993 38.0937 64.9481 37.5503 65.4476 36.6783C66.9839 33.9995 67.9006 30.7081 67.2052 27.7015C67.1485 27.4539 67.0227 27.2235 66.8941 26.9882C66.6929 26.6197 66.485 26.2391 66.5255 25.7609C66.6362 24.4699 66.9365 21.8709 67.8184 20.6484C68.7478 19.3584 69.2462 18.4531 69.3136 17.9326C69.6803 15.0657 68.5254 12.9103 65.8491 11.4664C65.7395 11.4075 65.6394 11.3315 65.5487 11.2384C65.5298 11.2821 65.4887 11.3144 65.4255 11.3353C65.3833 11.3486 65.3338 11.3505 65.2769 11.341C64.3834 11.1796 63.7638 10.7331 63.4182 10.0017C63.3984 9.95967 63.3904 9.91392 63.3949 9.86847C63.3995 9.82303 63.4164 9.77931 63.4443 9.74121C63.4722 9.70312 63.51 9.67183 63.5546 9.65014C63.5991 9.62846 63.6489 9.61705 63.6995 9.61693C64.2221 9.61313 64.7205 9.62643 65.1947 9.65683ZM34.453 36.4503C34.164 35.7698 33.8587 35.0509 34.4911 34.7547C33.9242 34.1221 33.6376 33.4866 33.6313 32.8482C33.6293 32.6974 33.6867 32.5509 33.7932 32.4346C33.8996 32.3182 34.0483 32.2397 34.2129 32.2127C36.5753 31.8271 38.4983 32.36 39.9819 33.8114C40.6352 34.4498 40.709 34.9799 40.2032 35.4016C40.4202 35.527 40.4708 35.7977 40.3549 36.2138C40.1075 37.0931 40.0964 38.1305 40.0859 39.1173C40.0824 39.4417 40.079 39.7606 40.0673 40.0667C40.0624 40.172 40.0219 40.2734 39.9512 40.357C39.8805 40.4407 39.7831 40.5025 39.6721 40.534L39.5299 40.5739C39.4962 40.583 39.4607 40.5851 39.426 40.5801C39.3913 40.5751 39.3584 40.5631 39.3295 40.5451C39.3007 40.527 39.2767 40.5033 39.2594 40.4757C39.2421 40.4482 39.2319 40.4175 39.2296 40.3859L39.0083 37.006C39.0033 36.9292 38.9678 36.8566 38.908 36.8012C38.8483 36.7458 38.7684 36.7113 38.6827 36.704C37.9983 36.6518 37.8987 37.0979 37.7989 37.5452C37.7733 37.6598 37.7477 37.7745 37.7122 37.8809C37.6978 37.9256 37.6711 37.9662 37.6347 37.9991C37.5982 38.0319 37.5531 38.056 37.5036 38.069C37.3498 38.1089 37.2075 38.0832 37.0769 37.9921C36.9493 37.9021 36.8869 37.7611 36.8209 37.6119C36.7593 37.4728 36.6947 37.3266 36.5711 37.2084C36.4994 37.14 36.412 37.1077 36.3087 37.1115C35.8514 37.1286 35.6365 37.3594 35.6639 37.804C35.7545 39.1909 35.7408 40.5046 35.6228 41.7452C35.6197 41.7782 35.6088 41.8102 35.5906 41.839C35.5725 41.8678 35.5476 41.8928 35.5176 41.9123C35.4876 41.9318 35.4533 41.9452 35.4169 41.9518C35.3805 41.9584 35.3429 41.9579 35.3067 41.9504L35.2213 41.9333C34.979 41.8839 34.8546 41.7471 34.8483 41.5229C34.7935 39.9935 34.763 38.6295 34.7566 37.4306C34.7544 37.1603 34.606 36.8107 34.453 36.4503ZM52.9538 35.9757L52.9329 35.9431C51.9656 35.8158 51.1595 35.4814 50.5146 34.94C50.4491 34.8847 50.4074 34.8103 50.397 34.7299C50.3866 34.6496 50.4081 34.5685 50.4577 34.5011C51.9666 32.4607 54.093 31.7188 56.8368 32.2754C57.0122 32.3111 57.1657 32.406 57.2657 32.5407C57.3657 32.6754 57.4045 32.8395 57.3742 32.9993C57.2541 33.6357 57.0275 34.1743 56.6945 34.6151C56.9854 35.4339 56.9843 36.2043 56.6914 36.9262C56.6735 36.9718 56.6427 37.0123 56.6022 37.044C56.5617 37.0756 56.5128 37.0972 56.4602 37.1067C56.4076 37.1162 56.3533 37.1132 56.3024 37.098C56.2515 37.0829 56.2058 37.0561 56.1698 37.0203L55.6798 36.5387C55.6186 36.4781 55.5387 36.4354 55.4504 36.4159C55.3622 36.3963 55.2694 36.4009 55.1841 36.429C55.0987 36.4571 55.0245 36.5075 54.9709 36.5737C54.9174 36.6399 54.8868 36.719 54.8833 36.8008V39.5L54.6873 41.0698C54.6841 41.142 54.6503 41.2103 54.5928 41.2611C54.5353 41.3119 54.4583 41.3413 54.3775 41.3434L54.251 41.3491C53.9855 41.3567 53.7273 40.8195 53.7042 40.5801C53.6051 39.5713 53.681 39.0037 53.7042 38.0348C53.726 37.179 53.3984 36.6685 52.9538 35.9757Z" fill="#222222"/>
<path d="M53.7042 38.0348C53.681 39.0037 53.6051 39.5713 53.7042 40.5801C53.7273 40.8195 53.9855 41.3567 54.251 41.3491L54.3775 41.3434C54.4583 41.3413 54.5353 41.3119 54.5928 41.2611C54.6503 41.2103 54.6841 41.142 54.6873 41.0698L54.8833 39.5V36.8008C54.8868 36.719 54.9174 36.6399 54.9709 36.5737C55.0245 36.5075 55.0987 36.4571 55.1841 36.429C55.2694 36.4009 55.3622 36.3963 55.4504 36.4159C55.5387 36.4354 55.6186 36.4781 55.6798 36.5387L56.1698 37.0203C56.2058 37.0561 56.2515 37.0829 56.3024 37.098C56.3533 37.1132 56.4076 37.1162 56.4602 37.1067C56.5128 37.0972 56.5617 37.0756 56.6022 37.044C56.6427 37.0123 56.6735 36.9718 56.6914 36.9262C56.9843 36.2043 56.9854 35.4339 56.6945 34.6151C57.0275 34.1743 57.2541 33.6357 57.3742 32.9993C57.4045 32.8395 57.3657 32.6754 57.2657 32.5407C57.1657 32.406 57.0122 32.3111 56.8368 32.2754C54.093 31.7188 51.9666 32.4607 50.4577 34.5011C50.4081 34.5685 50.3866 34.6496 50.397 34.7299C50.4074 34.8103 50.4491 34.8847 50.5146 34.94C51.1595 35.4814 51.9656 35.8158 52.9329 35.9431L52.9538 35.9757C53.3984 36.6685 53.726 37.179 53.7042 38.0348Z" fill="#222222"/>
<path d="M34.7566 37.4306C34.763 38.6295 34.7935 39.9935 34.8483 41.5229C34.8546 41.7471 34.979 41.8839 35.2213 41.9333L35.3067 41.9504C35.3429 41.9579 35.3805 41.9584 35.4169 41.9518C35.4533 41.9452 35.4876 41.9318 35.5176 41.9123C35.5476 41.8928 35.5725 41.8678 35.5906 41.839C35.6088 41.8102 35.6197 41.7782 35.6228 41.7452C35.7408 40.5046 35.7545 39.1909 35.6639 37.804C35.6365 37.3594 35.8514 37.1286 36.3087 37.1115C36.412 37.1077 36.4994 37.14 36.5711 37.2084C36.6947 37.3266 36.7593 37.4728 36.8209 37.6119C36.8869 37.7611 36.9493 37.9021 37.0769 37.9921C37.2075 38.0832 37.3498 38.1089 37.5036 38.069C37.5531 38.056 37.5982 38.0319 37.6347 37.9991C37.6711 37.9662 37.6978 37.9256 37.7122 37.8809C37.7477 37.7745 37.7733 37.6598 37.7989 37.5452C37.8987 37.0979 37.9983 36.6518 38.6827 36.704C38.7684 36.7113 38.8483 36.7458 38.908 36.8012C38.9678 36.8566 39.0033 36.9292 39.0083 37.006L39.2296 40.3859C39.2319 40.4175 39.2421 40.4482 39.2594 40.4757C39.2767 40.5033 39.3007 40.527 39.3295 40.5451C39.3584 40.5631 39.3913 40.5751 39.426 40.5801C39.4607 40.5851 39.4962 40.583 39.5299 40.5739L39.6721 40.534C39.7831 40.5025 39.8805 40.4407 39.9512 40.357C40.0219 40.2734 40.0624 40.172 40.0673 40.0667C40.079 39.7606 40.0824 39.4417 40.0859 39.1173C40.0964 38.1305 40.1075 37.0931 40.3549 36.2138C40.4708 35.7977 40.4202 35.527 40.2032 35.4016C40.709 34.9799 40.6352 34.4498 39.9819 33.8114C38.4983 32.36 36.5753 31.8271 34.2129 32.2127C34.0483 32.2397 33.8996 32.3182 33.7932 32.4346C33.6867 32.5509 33.6293 32.6974 33.6313 32.8482C33.6376 33.4866 33.9242 34.1221 34.4911 34.7547C33.8587 35.0509 34.164 35.7698 34.453 36.4503C34.606 36.8107 34.7544 37.1603 34.7566 37.4306Z" fill="#222222"/>
<path d="M43.3687 1.37313C43.9339 1.59342 44.2529 1.90167 44.3257 2.29788C44.3426 2.39273 44.2747 2.43939 44.1219 2.43786C42.4627 2.42562 40.8205 2.52506 39.1953 2.73617C38.9406 2.76982 38.8884 2.71934 39.0388 2.58472C39.5361 2.14414 40.128 1.84736 40.8144 1.69439C40.8508 1.9315 40.9515 2.10284 41.1164 2.20839C41.1583 2.2354 41.2097 2.25589 41.2665 2.26824C41.3234 2.28058 41.3841 2.28445 41.4439 2.27953C41.8393 2.25046 42.2408 2.22981 42.6483 2.21757C43.6052 2.18774 43.6562 1.86419 43.3687 1.37313Z" fill="#292728"/>
<path d="M67.1641 10.1257C66.0998 10.1325 65.6106 10.4061 66.2221 10.899C66.1949 10.9336 66.136 10.9593 66.0454 10.9758C65.985 10.9864 65.9141 10.9879 65.8326 10.9804C64.5523 10.8522 63.6646 10.498 63.1694 9.91768C63.141 9.88437 63.1295 9.84807 63.1361 9.81201C63.1426 9.77596 63.1669 9.74127 63.2068 9.71104C63.2467 9.68082 63.301 9.656 63.3648 9.63879C63.4286 9.62159 63.5 9.61253 63.5725 9.61244C64.3213 9.60943 65.0354 9.61998 65.7148 9.6441C66.6206 9.67575 67.1037 9.83628 67.1641 10.1257Z" fill="#292728"/>
<path d="M39.9763 35.1299C38.1525 35.9453 35.7965 36.0309 34.4187 34.4366C33.8671 33.7585 33.5882 33.0775 33.5821 32.3933C33.5802 32.2317 33.636 32.0747 33.7396 31.95C33.8432 31.8253 33.9879 31.7411 34.148 31.7122C36.4465 31.2989 38.3175 31.87 39.7611 33.4256C40.3967 34.1098 40.4684 34.6779 39.9763 35.1299Z" fill="#FEFEFE"/>
<path d="M57.0986 34.2793C55.9869 35.5733 55.1121 35.6496 53.4841 35.7015C52.5546 35.5652 51.7801 35.2071 51.1604 34.6272C51.0974 34.5681 51.0574 34.4884 51.0474 34.4023C51.0374 34.3163 51.0581 34.2294 51.1057 34.1573C52.5556 31.9721 54.5988 31.1776 57.2353 31.7738C57.4038 31.8119 57.5513 31.9136 57.6474 32.0578C57.7435 32.2021 57.7808 32.3779 57.7517 32.5489C57.6363 33.2305 57.4186 33.8073 57.0986 34.2793Z" fill="#FEFEFE"/>
<path d="M34.2194 34.1652C35.6301 35.9509 38.2142 36.008 40.2606 35.2536C40.4835 35.4101 40.5196 35.7224 40.3689 36.1905C39.9421 37.5049 39.9413 39.1637 39.8096 40.5734C39.7976 40.6934 39.7478 40.8068 39.667 40.8979C39.5862 40.9891 39.4783 41.0538 39.3581 41.083L39.204 41.1199C39.1676 41.1282 39.1296 41.1284 39.093 41.1206C39.0564 41.1127 39.022 41.097 38.9925 41.0746C38.963 41.0522 38.939 41.0237 38.9224 40.9912C38.9058 40.9586 38.8969 40.9229 38.8965 40.8867L38.8827 37.013C38.8824 36.925 38.8493 36.8398 38.7893 36.7728C38.7294 36.7059 38.6465 36.6616 38.5557 36.648C37.6443 36.5205 37.6643 37.3479 37.4449 37.9329C37.4266 37.983 37.3955 38.0278 37.3545 38.0631C37.3135 38.0984 37.2639 38.1231 37.2104 38.1349C37.0439 38.1711 36.8941 38.1331 36.7609 38.0209C36.5097 37.8073 36.5303 37.3905 36.2737 37.0949C36.2018 37.0124 36.1108 36.9702 36.0006 36.9682C35.5124 36.9597 35.2683 37.2102 35.2683 37.7196C35.2738 39.3092 35.173 40.8088 34.9659 42.2185C34.9605 42.256 34.9467 42.2919 34.9255 42.3237C34.9043 42.3555 34.8761 42.3825 34.8429 42.4029C34.8097 42.4233 34.7722 42.4366 34.733 42.4419C34.6938 42.4472 34.6539 42.4443 34.6158 42.4335L34.526 42.4087C34.2711 42.3375 34.1477 42.1737 34.1556 41.9172C34.1977 40.1671 34.2546 38.6073 34.3266 37.2377C34.3711 36.3455 33.1595 34.6235 34.2194 34.1652Z" fill="#010101"/>
<path d="M57.4113 34.0881C55.9632 35.8444 53.377 35.8479 51.3457 35.0512C51.1194 35.2031 51.0768 35.5146 51.2179 35.9858C51.6175 37.3089 51.5838 38.9677 51.6863 40.38C51.6958 40.5002 51.7433 40.6146 51.8222 40.7074C51.9011 40.8003 52.0077 40.8671 52.1273 40.8989L52.2807 40.939C52.317 40.948 52.355 40.949 52.3917 40.9419C52.4285 40.9349 52.4632 40.9199 52.4932 40.8981C52.5232 40.8763 52.5478 40.8483 52.5651 40.8161C52.5824 40.7839 52.592 40.7484 52.5932 40.7122L52.6875 36.839C52.6895 36.751 52.7244 36.6665 52.7858 36.6008C52.8472 36.5351 52.931 36.4926 53.0221 36.4809C53.9365 36.3723 53.8993 37.1991 54.1066 37.7886C54.1238 37.8391 54.154 37.8845 54.1943 37.9207C54.2346 37.9569 54.2836 37.9826 54.337 37.9955C54.5028 38.0351 54.6534 38.0002 54.789 37.8909C55.0447 37.6824 55.0328 37.2652 55.2956 36.975C55.3692 36.894 55.4611 36.8536 55.5714 36.854C56.0599 36.8556 56.2988 37.1111 56.2883 37.6205C56.2498 39.2099 56.3195 40.7115 56.4974 42.1254C56.502 42.163 56.515 42.1991 56.5356 42.2314C56.5561 42.2636 56.5838 42.2912 56.6166 42.3123C56.6494 42.3334 56.6866 42.3475 56.7257 42.3535C56.7648 42.3596 56.8048 42.3576 56.8431 42.3476L56.9335 42.3247C57.1899 42.2587 57.3168 42.0975 57.3141 41.8409C57.3084 40.0901 57.2838 38.5292 57.2403 37.1582C57.2143 36.2651 58.4621 34.5684 57.4113 34.0881Z" fill="#010101"/>
<path d="M28.759 40L27 38.1069C27.4061 37.9952 27.7808 37.971 28.124 38.0343C28.4444 38.0939 28.6732 38.254 28.8105 38.5146C29.0793 39.0432 29.0622 39.5384 28.759 40Z" fill="#222222"/>
<path d="M79.2371 57.8644V57.2655V56.6666C79.2371 56.4633 79.2448 56.3637 79.2591 56.3226C79.2722 56.2848 79.2908 56.2966 79.3138 56.3226C79.3395 56.3516 79.3706 56.3983 79.4058 56.414C83.8715 58.4545 86.6709 62.6735 87.4846 66.9009C88.4501 71.9276 88.9215 77.0163 89.3768 82.0937C89.4113 82.4896 89.4371 82.8874 89.4543 83.287C89.5426 85.3454 89.7245 87.369 90 89.358C89.1885 89.782 88.4243 90.0888 87.7074 90.2783C84.979 90.9932 82.3312 91.2634 79.2282 91.2549C56.1283 91.179 32.9524 91.8844 9.81698 91.9998C7.39742 92.0111 4.7686 91.4607 2.10364 90.8021C1.05531 90.5413 0.353032 90.156 0 89.6044C0.245401 89.0246 0.591329 88.0089 0.632229 87.6467C0.739861 86.686 0.926065 84.6905 1.19084 81.6602C1.54925 77.5679 2.10463 73.636 2.66001 69.6338C2.77195 68.8307 3.10238 67.6223 3.6513 66.0087C4.90414 62.3414 7.09014 59.6676 10.9649 57.779C11.3997 57.5689 11.7043 57.2274 11.8787 56.7545C11.878 56.7608 11.8773 56.7671 11.8766 56.7734C11.6485 58.8371 11.4978 60.2007 13.6546 61.5195C14.746 62.1837 15.4467 62.1697 16.5251 62.2907C16.5795 62.2967 16.6308 62.3154 16.673 62.3448C16.7152 62.3741 16.7468 62.4129 16.7641 62.4568C17.2592 63.6842 21.215 86.9372 21.8013 88C22.7595 89.7373 20.443 69.2125 21.8013 71.0636C22.5504 72.0852 23.3931 72.8452 24.4393 73.5319C24.8892 73.8284 25.4069 73.8771 25.9924 73.6783C27.8717 73.0422 27.3421 71.4773 26.1733 70.5063C26.1464 70.4837 26.1286 70.4541 26.1224 70.422C26.1163 70.3898 26.1221 70.3568 26.1391 70.3278C26.1561 70.2988 26.1834 70.2753 26.2168 70.2609C26.2503 70.2464 26.2882 70.2416 26.325 70.2473C26.7416 70.3149 27.1904 70.557 27.5262 70.8412C28.5315 71.6912 29.6132 72.4596 30.7713 73.1463C31.1738 73.3846 31.4483 73.6773 31.5947 74.0244C31.6069 74.0522 31.6094 74.0826 31.6017 74.1116C31.594 74.1406 31.5765 74.1669 31.5515 74.1872C31.5265 74.2075 31.4951 74.2208 31.4614 74.2254C31.4276 74.23 31.3931 74.2257 31.3622 74.213C28.2656 73.0084 27.0063 76.7039 30.2127 77.4891C30.2458 77.497 30.2763 77.5116 30.3017 77.5318C30.3271 77.552 30.3465 77.5772 30.3585 77.6052C30.3705 77.6333 30.3747 77.6634 30.3706 77.6931C30.3666 77.7229 30.3545 77.7513 30.3354 77.7762C29.6476 78.6515 28.9114 78.2941 28.1688 77.7143C26.6813 76.5453 25.1421 75.4317 23.5513 74.3734C22.9669 73.985 22.7829 73.2251 22.2824 72.741C21.8648 72.3357 21.4741 71.9229 21.1103 71.5026C21.0947 71.4848 21.0745 71.4703 21.0514 71.4604C21.0283 71.4506 21.0028 71.4456 20.9771 71.4459C20.9513 71.4461 20.926 71.4517 20.9031 71.462C20.8803 71.4724 20.8605 71.4872 20.8455 71.5054C17.6617 75.3022 23.3027 77.9648 26.1054 79.8702C27.0074 80.4838 27.6941 80.8534 28.1655 80.9791C30.0512 81.4886 32.1275 80.6808 33.0251 79.13C33.0811 79.038 33.1596 79.0183 33.2608 79.0709C35.2111 80.0869 41.9564 83.5235 43.6516 81.5026C44.6364 80.329 43.6419 78.8879 42.1211 78.75C41.7207 78.7144 41.6927 78.6055 42.0371 78.4235C43.1963 77.8156 46.3284 78.0942 47.7104 78.1505C48.1043 78.1655 48.4466 78.2903 48.7372 78.5249C48.7622 78.5449 48.7798 78.5709 48.7878 78.5997C48.7958 78.6285 48.7937 78.6587 48.782 78.6864C48.7702 78.7142 48.7492 78.7383 48.7217 78.7556C48.6942 78.773 48.6613 78.7828 48.6274 78.7838C47.4262 78.8232 46.7482 79.3139 46.5932 80.2558C46.2477 82.3639 48.9245 82.3329 50.4227 81.9558C53.1479 81.2746 55.2371 80.2473 57.4909 79.0681C57.5161 79.0549 57.5441 79.0464 57.5732 79.0431C57.6023 79.0398 57.6319 79.0418 57.6601 79.0489C57.6883 79.056 57.7145 79.0682 57.737 79.0845C57.7596 79.1009 57.778 79.1212 57.7912 79.1441C58.9568 81.2296 62.1535 81.7193 64.1458 80.3036C65.644 79.2369 67.0906 78.3898 68.3434 77.3737C69.0667 76.7855 69.9385 76.1944 70.3938 75.4852C71.2527 74.1549 71.1386 72.8058 70.0515 71.4379C70.0106 71.3854 69.9633 71.3807 69.9094 71.4238C69.2217 71.9924 68.4274 72.5553 68.0819 73.3574C67.9096 73.7571 67.7224 74.0254 67.52 74.1623C65.8022 75.3219 64.0123 76.6354 62.1503 78.1027C61.8468 78.341 61.5163 78.3729 61.159 78.1984L60.778 78.0126C60.4206 77.8381 60.4228 77.6674 60.7844 77.5004C61.8973 76.9844 62.3795 76.261 62.231 75.3304C61.9856 73.7993 60.7877 73.9991 59.4186 74.1229C59.2894 74.1342 59.2464 74.0873 59.2894 73.9822C59.5316 73.4052 60.3259 72.9099 60.8845 72.5693C61.7563 72.0374 63.6001 70.1404 64.6527 70.2671C64.6759 70.2705 64.6974 70.2795 64.715 70.2931C64.7326 70.3067 64.7455 70.3242 64.7522 70.3439C64.7589 70.3635 64.7592 70.3843 64.753 70.4041C64.7469 70.4238 64.7345 70.4417 64.7173 70.4556C63.613 71.3112 62.8284 73.1435 64.756 73.7233C66.1865 74.1539 67.4361 72.8789 68.2433 71.9248C70.7145 69.0108 72.6638 65.8511 74.091 62.4455C74.1297 62.3554 74.2029 62.3085 74.3105 62.3048C76.9647 62.1922 79.5866 60.7709 79.2411 58.1646C79.0904 57.0238 79.5909 59.7395 79.2371 57.8644ZM52.6959 82.0852C52.6935 82.0602 52.6835 82.0361 52.6668 82.0156C52.6501 81.995 52.6274 81.9787 52.601 81.9681C52.5745 81.9576 52.5452 81.9533 52.5159 81.9555C52.4867 81.9578 52.4586 81.9666 52.4343 81.9811C51.6981 82.4399 50.5938 82.5637 49.7414 82.7861C49.0375 82.9718 48.3153 83.0666 47.5748 83.0703C44.673 83.0835 42.7862 83.0797 41.9144 83.0591C41.74 83.0553 41.5625 82.9859 41.3816 82.8508C41.3106 82.8001 41.231 82.7635 41.1427 82.741L38.3206 82.0655C38.287 82.0575 38.2517 82.0568 38.2178 82.0634C38.1838 82.0701 38.1523 82.0838 38.1258 82.1035C38.0994 82.1233 38.0789 82.1483 38.0661 82.1765C38.0534 82.2047 38.0487 82.2352 38.0526 82.2654C38.2248 83.7327 38.9545 84.7712 40.2418 85.381C40.8402 85.6644 41.7218 85.8145 42.8863 85.8314C44.5223 85.8576 46.1583 85.8586 47.7943 85.8342C48.9632 85.8173 49.8071 85.7075 50.3258 85.5049C51.8983 84.8913 52.8638 83.6557 52.6959 82.0852Z" fill="#222222"/>
<path d="M79.2371 56.6666C79.2371 56.4633 79.2448 56.3637 79.2591 56.3226H79.0344L79.1357 56.4946L79.2371 56.6666Z" fill="#222222"/>
<path d="M79.0344 56.6245L79.2371 56.6666L79.1357 56.4946L79.0344 56.3226V56.6245Z" fill="#222222"/>
<path d="M79.2371 56.6666L79.0344 56.6245L79.1357 57.1392L79.2371 57.2655V56.6666Z" fill="#222222"/>
<path d="M79.2371 57.2655L79.1357 57.1392L79.2371 57.8644V57.2655Z" fill="#222222"/>
<path d="M11.8787 56.7545L11.8766 56.7734C11.6485 58.8371 11.4978 60.2007 13.6546 61.5195C14.746 62.1837 15.4467 62.1697 16.5251 62.2907C16.5795 62.2967 16.6308 62.3154 16.673 62.3448C16.7152 62.3741 16.7468 62.4129 16.7641 62.4568C17.2592 63.6842 21.215 86.9372 21.8013 88L60 88.5L75.5 71.0636L80 57.8644L79.0344 56L70.3938 54L74.091 55L65.5 54L22.5 61.5L24 59.5L22.5 57.5L21.8013 53.5L11.8787 56.7545Z" fill="#222222"/>
</svg>
