<svg width="90" height="90" viewBox="0 0 90 90" fill="none" xmlns="http://www.w3.org/2000/svg">
<circle cx="45" cy="45" r="45" fill="black"/>
<path d="M50.0866 3.21336C50.0494 2.77517 49.8332 2.47732 49.4379 2.3198C49.0312 2.15656 48.6074 2.07207 48.1663 2.06634C46.6542 2.04486 45.1434 2.03627 43.6341 2.04057C42.669 2.04486 42.1506 2.05274 42.079 2.0642C41.4031 2.18162 41.0028 2.59188 40.8783 3.29498L39.1921 3.34868C39.1766 3.34944 39.1612 3.3463 39.1473 3.33954C39.1333 3.33278 39.1213 3.32262 39.1123 3.31C39.1033 3.29737 39.0977 3.28269 39.0959 3.26731C39.094 3.25192 39.0961 3.23633 39.1019 3.22195C39.4427 2.35274 40.0706 1.71837 40.9857 1.31885C41.5026 1.0926 42.2 0.990209 43.0778 1.01169C44.7045 1.05035 46.3434 1.0482 47.9945 1.00525C48.7964 0.985198 49.4401 1.08186 49.9255 1.29522C50.8663 1.70763 51.4957 2.34272 51.8136 3.20047C51.8172 3.21112 51.8185 3.22245 51.8174 3.23362C51.8162 3.24478 51.8126 3.25551 51.8068 3.26499C51.801 3.27448 51.7932 3.28248 51.784 3.28842C51.7748 3.29435 51.7643 3.29806 51.7534 3.29928C51.0775 3.37374 50.5219 3.3451 50.0866 3.21336Z" fill="#363636"/>
<path d="M33.2915 4.02531C32.1516 3.9222 31.1148 4.16636 30.1812 4.75776C29.8289 4.98115 29.5239 5.14726 29.2662 5.25609C28.9425 5.39213 28.6232 5.53819 28.3082 5.69428C28.1077 5.79309 27.7819 5.91552 27.3308 6.06158C26.9872 6.17471 26.6707 6.33294 26.3814 6.53628C25.6411 6.78831 25.1406 7.29452 24.88 8.0549C24.8113 8.25824 24.7397 8.46516 24.6652 8.67566C24.6366 8.75729 24.5872 8.82459 24.517 8.87757L23.7094 9.4833C23.6306 9.54201 23.5833 9.5234 23.5676 9.42745C23.4029 8.42363 23.5991 7.53366 24.1561 6.75752C24.5084 6.26564 24.9938 6.04225 25.4836 5.71576C25.6597 5.5969 25.8444 5.49523 26.0378 5.41075C27.6487 4.69905 29.1659 3.98163 30.5893 3.25848C31.7965 2.64559 32.9643 2.7265 34.0927 3.5012C34.1106 3.5134 34.1249 3.53021 34.134 3.54987C34.1432 3.56952 34.1468 3.59128 34.1446 3.61285C34.1424 3.63442 34.1345 3.65499 34.1215 3.67239C34.1086 3.68979 34.0912 3.70337 34.0712 3.7117L33.2915 4.02531Z" fill="#363636"/>
<path d="M65.3628 6.86491C65.3542 6.71741 65.2382 6.59999 65.0148 6.51264C63.222 5.80811 61.6447 5.09498 60.2828 4.37326C59.491 3.95369 58.6217 3.842 57.6752 4.03818L56.8719 3.66658C56.7931 3.62935 56.7816 3.5778 56.8375 3.51193C56.9807 3.34295 57.1697 3.21479 57.4046 3.12744C58.4857 2.71789 59.4845 2.74295 60.401 3.20262C61.8272 3.91718 63.3194 4.62887 64.8774 5.3377C65.1351 5.45512 65.3742 5.59403 65.5948 5.75441C65.8998 5.97565 66.2649 6.15823 66.5205 6.42672C67.3067 7.24868 67.591 8.21598 67.3733 9.32863C67.3518 9.43746 67.2895 9.47111 67.1864 9.42959C66.8972 9.3093 66.6695 9.14605 66.5034 8.93985C66.4103 8.82386 66.3079 8.57541 66.1962 8.1945C66.0544 7.7062 65.7766 7.263 65.3628 6.86491Z" fill="#363636"/>
<path d="M34.1462 7.72195C32.5331 8.83031 31.9553 6.63938 33.5512 6.14534C33.9722 6.01503 34.3775 5.87398 34.767 5.72219C36.3822 5.09498 38.6569 4.52792 40.4419 4.59666C40.82 4.61098 41.0806 4.79284 41.2238 5.14224C41.4171 5.6105 41.1572 6.0315 40.6632 6.05083C39.9157 6.07876 39.1725 6.10023 38.4357 6.25704C37.2185 6.51479 36.0171 6.88066 34.8314 7.35465C34.5894 7.45202 34.361 7.57446 34.1462 7.72195Z" fill="#363636"/>
<path d="M58.0853 7.91313C57.7201 7.68545 57.3492 7.45919 56.9726 7.23437C56.586 7.00526 56.1908 6.83342 55.7869 6.71886C54.5218 6.36015 53.1471 5.99929 51.8239 6.06373L49.9788 5.94559C49.8858 5.93843 49.8206 5.89261 49.7834 5.80812C49.5643 5.30979 49.6724 4.94249 50.1077 4.70621C50.3912 4.55013 50.8402 4.50502 51.4545 4.57089C53.5323 4.79428 55.633 5.33127 57.7566 6.18187C57.9986 6.27924 58.1855 6.44034 58.3173 6.66516C58.5349 7.03318 58.4576 7.44917 58.0853 7.91313Z" fill="#363636"/>
<path d="M42.5898 8.57254C44.3791 8.58758 46.2801 8.57684 48.1144 8.59617C48.9163 8.60476 49.5113 8.2797 49.8994 7.62099C49.9226 7.58209 49.9552 7.54967 49.9942 7.52677C50.0333 7.50386 50.0775 7.4912 50.1228 7.48997L51.2161 7.45345C51.3135 7.45059 51.3464 7.49569 51.3149 7.58877C50.7843 9.17183 49.517 9.82696 47.8803 9.79259C46.2249 9.75679 44.5595 9.75751 42.8841 9.79474C41.344 9.82911 40.139 8.94844 39.6428 7.47708C39.6357 7.45703 39.6428 7.44701 39.6643 7.44701H40.8951C40.9366 7.44701 40.9681 7.46491 40.9896 7.50071C41.402 8.20954 41.9354 8.56682 42.5898 8.57254Z" fill="#363636"/>
<path d="M54.9687 8.17519C55.8436 8.42865 56.5646 8.85896 57.1317 9.46612C57.3787 9.73033 57.7439 9.8678 58.0875 9.94512C59.299 10.2186 60.1976 10.5337 60.7832 10.8902C61.4964 11.3241 62.2911 11.7917 63.1675 12.2929C63.2144 12.3195 63.2522 12.3597 63.276 12.4084C63.2997 12.457 63.3083 12.5118 63.3007 12.5656C63.2806 12.716 63.1875 12.8184 63.0214 12.8728C62.4945 13.0446 61.9818 12.9809 61.4835 12.6816C60.7546 12.2449 59.967 11.801 59.1207 11.3499C58.8314 11.1952 58.5314 11.0878 58.2207 11.0277C56.5517 10.7077 55.3274 9.94083 54.8978 8.24393C54.882 8.18092 54.9057 8.15801 54.9687 8.17519Z" fill="#363636"/>
<path d="M34.3371 9.09236C34.771 8.67351 35.3875 8.45656 35.946 8.25895C35.9562 8.2551 35.9673 8.25413 35.9781 8.25614C35.9889 8.25816 35.9989 8.26308 36.0071 8.27038C36.0153 8.27768 36.0213 8.28707 36.0246 8.29755C36.0278 8.30803 36.0281 8.31919 36.0254 8.32983C35.7405 9.49547 35.0187 10.3181 33.8603 10.7979C33.2438 11.0513 32.6123 11.0277 32.0066 11.337C31.0343 11.8353 30.1708 12.2993 29.4161 12.7289C28.9522 12.9938 28.4467 13.0496 27.8997 12.8964C27.8019 12.869 27.7187 12.8042 27.6677 12.716C27.5574 12.5255 27.5882 12.3859 27.76 12.2971C28.6221 11.8561 29.4276 11.4093 30.1765 10.9568C30.8467 10.553 31.723 10.2451 32.8056 10.0332C33.4479 9.90644 33.8882 9.52411 34.3371 9.09236Z" fill="#363636"/>
<path d="M69.6543 14.0112C69.4224 14.1172 69.2226 14.1079 69.0551 13.9833C68.1386 13.3031 67.1899 12.6702 66.209 12.0845C66.0694 12.0007 65.9233 11.9814 65.803 11.8676C65.1901 11.3034 64.4892 10.9575 63.7002 10.8301L62.5188 10.2523C62.0047 10.0003 61.9159 9.64298 62.2524 9.18045C62.2782 9.14321 62.3076 9.10885 62.3405 9.07734C62.7343 8.67925 63.1682 8.62913 63.6422 8.92698C64.3983 9.39954 65.1092 9.87209 65.7751 10.3446C66.0715 10.5551 66.3808 10.6583 66.6837 10.8473C67.603 11.4272 68.5109 12.0444 69.4073 12.6988C69.8742 13.0396 69.9565 13.4771 69.6543 14.0112Z" fill="#363636"/>
<path d="M28.0502 10.5079C27.6994 10.6181 27.3829 10.7621 27.1008 10.9396C25.5729 11.8976 23.9798 12.968 22.3216 14.1508C21.9335 14.4272 21.5855 14.3835 21.2777 14.0198C21.2104 13.9396 21.1674 13.8458 21.1488 13.7384C21.0858 13.3847 21.1889 13.089 21.4581 12.8513C22.3001 12.1053 23.2058 11.443 24.1753 10.8644C24.7037 10.5494 25.2178 10.2158 25.7175 9.86349C26.2559 9.48402 26.7736 9.16039 27.2705 8.89261C28.4583 8.25037 29.3798 10.0869 28.0502 10.5079Z" fill="#363636"/>
<path d="M76.3968 15.8649C76.0703 15.257 75.3637 14.9133 74.8868 14.4193C74.1665 13.6732 73.4126 12.968 72.625 12.3036C71.9312 11.3585 70.6875 10.4176 69.4997 10.6196C69.1861 10.6711 68.9004 10.5573 68.6512 10.379C68.5066 10.2759 68.5109 10.1785 68.6641 10.0869C69.6508 9.49401 70.6403 9.47611 71.6326 10.0332C72.4689 10.5028 73.2801 11.1308 74.0663 11.9169C74.9469 12.7976 75.8878 13.6826 76.8221 14.4838C78.141 15.6136 78.8606 16.8551 78.3751 18.5606C78.3379 18.6966 78.2691 18.7153 78.1689 18.6164L77.7823 18.2341C77.7417 18.1922 77.7154 18.1388 77.7071 18.0816C77.6298 17.4888 77.3727 16.9997 76.936 16.6145C76.6761 16.3847 76.5558 16.1484 76.3968 15.8649Z" fill="#363636"/>
<path d="M18.4212 12.353C18.2437 12.6093 18.021 12.8391 17.7532 13.0425C17.1475 13.5007 16.5668 13.989 16.0112 14.5074C15.9511 14.5647 15.6332 14.8153 15.0575 15.2592C14.5649 15.6387 14.2277 16.1241 14.0458 16.7155C13.8396 16.9776 13.7007 17.2682 13.6291 17.5876C13.5045 18.1546 13.3048 18.3673 12.9117 18.7367C12.8014 18.8398 12.7248 18.8198 12.6819 18.6766C12.437 17.8618 12.4878 17.0492 12.8344 16.2387C13.0649 15.6974 13.5439 15.1167 14.2714 14.4966C15.238 13.674 16.1637 12.7933 17.0444 11.8955C17.8578 11.0663 18.6668 10.4348 19.4716 10.0009C20.4038 9.49832 21.3411 9.53626 22.2833 10.1148C22.438 10.2093 22.4394 10.3067 22.2876 10.4069C22.0535 10.5594 21.7785 10.6367 21.4821 10.6239C20.9723 10.6009 20.648 10.6196 20.5091 10.6797C19.6313 11.0592 18.9353 11.6169 18.4212 12.353Z" fill="#363636"/>
<path d="M52.1401 12.5227L51.5816 13.137C49.2145 14.4494 46.8453 14.9091 44.2012 15.242C42.9568 15.3995 41.5742 15.8427 40.0534 16.5716C38.8656 17.1408 37.8926 18.1267 37.0699 19.1749C35.7017 20.9234 35.5728 23.1358 35.7833 25.2902C36.0997 28.5208 36.525 32.2432 37.0592 36.4575C37.3341 38.6441 37.6821 41.1057 38.1418 43.3503C38.3952 44.5933 38.6272 45.5305 38.8377 46.162C39.4219 47.9248 40.2281 49.3668 41.2563 50.4881C41.6859 50.9563 42.3904 51.5513 43.3699 52.273C43.5403 52.3976 43.7165 52.5064 43.8983 52.5995C44.063 52.6854 44.2248 52.7828 44.3838 52.8916C43.3513 52.9403 42.374 52.7735 41.4518 52.3912C40.3792 51.9458 39.2881 51.484 38.1783 51.0057C36.4828 49.8329 35.1904 48.3501 34.3012 46.5573C33.5565 45.0594 32.9988 43.3668 32.6279 41.4795L32.4582 40.2723C32.4533 40.2365 32.4375 40.203 32.4129 40.1765C32.3883 40.15 32.3561 40.1317 32.3207 40.1241C31.6592 39.978 31.0434 39.7639 30.4735 39.4818C30.4428 39.4666 30.4081 39.4614 30.3742 39.4668C30.3403 39.4722 30.309 39.4879 30.2845 39.5119C30.104 39.6866 29.953 39.9122 29.8312 40.1885C29.7639 40.3432 29.6293 40.4241 29.4274 40.4313C28.2525 38.99 28.362 37.5229 28.1923 35.8733C28.1215 35.1966 28.1945 34.3353 28.4351 33.6694C28.6456 33.0866 29.1153 32.6012 29.8441 32.2131C30.2952 31.9725 30.858 31.9425 31.3606 32.0005C31.4623 32.0134 31.5131 31.9682 31.5131 31.8651C31.5317 29.3219 31.5267 26.6721 31.4981 23.9155C31.4766 21.9165 31.5833 20.4687 31.8181 19.5723C32.2062 18.0902 32.953 16.7241 34.0585 15.474C35.9701 13.3131 39.4606 11.8847 42.2766 11.7773C43.8289 11.7172 45.7033 11.7107 47.9 11.758C49.4279 11.7895 50.8413 12.0444 52.1401 12.5227Z" fill="#F7F8F4"/>
<path d="M52.1395 12.5227C54.0441 13.2143 55.5527 14.1358 56.6653 15.2871C58.5355 17.2203 59.4706 19.7062 59.4706 22.7449C59.4706 25.6862 59.4785 28.7234 59.4942 31.8566C59.4945 31.8731 59.498 31.8894 59.5047 31.9046C59.5114 31.9197 59.521 31.9334 59.533 31.9448C59.545 31.9562 59.5591 31.9651 59.5746 31.971C59.5901 31.9768 59.6065 31.9796 59.6231 31.979C60.9806 31.9303 61.9687 32.4952 62.5873 33.6738C62.8536 34.1821 62.9596 34.8737 62.9052 35.7487C62.8522 36.6279 62.7656 37.4771 62.6453 38.2962C62.4763 39.4446 61.9128 40.3768 60.9548 41.0928C60.231 41.6363 59.3954 41.6964 58.4911 41.5654C58.3894 41.5511 58.3271 41.594 58.3042 41.6943C58.0923 42.6523 57.8424 43.5916 57.5546 44.5124C56.8157 46.8609 55.567 48.8549 53.8085 50.4945C53.5465 50.7408 53.061 51.1403 52.3522 51.6931C50.9603 52.7778 49.1947 53.5081 47.5343 53.8496C45.0885 54.3523 42.6176 53.8833 40.1216 52.4427C39.2438 51.9358 38.5959 51.4568 38.1777 51.0057C39.2875 51.484 40.3787 51.9458 41.4512 52.3912C42.3734 52.7735 43.3508 52.9403 44.3832 52.8916C46.2448 52.9346 47.9983 52.5122 49.6436 51.6243C50.404 51.2141 51.2546 50.7716 51.856 50.1573C53.5343 48.4389 54.7959 46.4606 55.6407 44.2224C56.0847 43.0411 56.4233 41.9091 56.6567 40.8265C56.7061 40.5924 56.6932 40.3604 56.7169 40.1241C56.7201 40.0851 56.7389 40.049 56.7691 40.0236C56.7992 39.9983 56.8384 39.9858 56.878 39.9888C58.4804 40.1177 60.3641 39.9931 61.1675 38.4422C61.9708 36.8936 62.3789 35.2289 61.1975 33.794C60.5553 33.01 58.7532 33.0874 57.8317 33.141C57.8057 33.1428 57.7796 33.1392 57.7551 33.1306C57.7305 33.1219 57.708 33.1083 57.6889 33.0906C57.6698 33.0729 57.6545 33.0514 57.6439 33.0276C57.6334 33.0038 57.6278 32.9781 57.6276 32.952C57.6018 30.0379 57.5911 27.1761 57.5954 24.3666C57.5975 22.1284 57.2882 20.105 56.3904 18.2363C55.8534 17.1179 55.2434 16.21 54.5603 15.5127C53.8472 14.7852 52.8541 13.9933 51.5811 13.137L52.1395 12.5227Z" fill="#5C5C5C"/>
<path d="M51.5815 13.137C52.8545 13.9933 53.8476 14.7852 54.5607 15.5126C55.2438 16.21 55.8538 17.1179 56.3908 18.2363C57.2886 20.105 57.5979 22.1284 57.5958 24.3666C57.5915 27.1761 57.6022 30.0379 57.628 32.952C57.6282 32.9781 57.6338 33.0038 57.6443 33.0276C57.6549 33.0514 57.6701 33.0729 57.6893 33.0906C57.7084 33.1083 57.7309 33.1219 57.7554 33.1305C57.78 33.1392 57.8061 33.1428 57.8321 33.141C58.7535 33.0873 60.5557 33.01 61.1979 33.794C62.3793 35.2289 61.9712 36.8935 61.1679 38.4422C60.3645 39.9931 58.4807 40.1177 56.8784 39.9888C56.8388 39.9858 56.7996 39.9983 56.7694 40.0236C56.7393 40.049 56.7205 40.0851 56.7173 40.1241C56.6936 40.3604 56.7065 40.5924 56.6571 40.8265C56.4237 41.9091 56.085 43.041 55.6411 44.2224C54.7963 46.4606 53.5347 48.4389 51.8564 50.1573C51.255 50.7716 50.4044 51.2141 49.644 51.6243C47.9986 52.5122 46.2452 52.9346 44.3836 52.8916C44.2247 52.7828 44.0628 52.6854 43.8982 52.5995C43.7163 52.5064 43.5402 52.3976 43.3698 52.273C42.3903 51.5513 41.6858 50.9563 41.2562 50.4881C40.228 49.3668 39.4218 47.9248 38.8376 46.162C38.627 45.5305 38.3951 44.5933 38.1416 43.3504C37.6819 41.1057 37.334 38.6441 37.059 36.4575C36.5249 32.2432 36.0996 28.5208 35.7831 25.2902C35.5726 23.1358 35.7015 20.9234 37.0698 19.1749C37.8924 18.1267 38.8655 17.1408 40.0533 16.5716C41.5741 15.8427 42.9566 15.3995 44.201 15.242C46.8452 14.9091 49.2144 14.4494 51.5815 13.137Z" fill="#DEDEDE"/>
<path d="M16.4555 20.8482C17.0225 20.2038 17.7743 20.0212 18.3887 19.4628C19.2693 18.6651 20.0977 17.8826 20.8739 17.115C21.7996 16.1978 22.7233 15.4052 23.707 14.6126C23.9404 14.425 24.191 14.2639 24.4588 14.1293C24.5419 14.0878 24.5834 14.1136 24.5834 14.2067C24.5834 15.0243 24.3063 15.6766 23.7521 16.1635C22.7197 17.0699 21.7467 17.9742 20.833 18.8764C20.5467 19.1599 20.2524 19.4212 19.9502 19.6604C18.8118 20.5668 18.2641 21.5742 16.5393 21.1188C16.3646 21.073 16.3366 20.9828 16.4555 20.8482Z" fill="#363636"/>
<path d="M72.554 19.4091C73.1941 20.0234 74.0211 20.2146 74.6053 20.8869C74.6204 20.9039 74.6309 20.9244 74.6359 20.9465C74.6409 20.9686 74.6403 20.9916 74.6341 21.0134C74.6279 21.0353 74.6163 21.0552 74.6004 21.0713C74.5845 21.0875 74.5648 21.0994 74.5431 21.106C73.381 21.4647 72.6421 21.1146 71.755 20.2833C71.3827 19.9353 70.9559 19.5759 70.4748 19.205C70.245 19.0267 69.9958 18.6251 69.723 18.3802C68.8524 17.6012 68.049 16.873 67.313 16.1957C66.6958 15.6286 66.3944 14.9449 66.4087 14.1444C66.4088 14.1329 66.412 14.1217 66.4179 14.1119C66.4239 14.1021 66.4323 14.094 66.4424 14.0886C66.4524 14.0831 66.4638 14.0804 66.4752 14.0808C66.4867 14.0812 66.4978 14.0846 66.5075 14.0907C66.8447 14.3033 67.1863 14.4387 67.4999 14.7007C68.6068 15.62 69.3557 16.2745 69.7466 16.664C70.7075 17.622 71.6433 18.537 72.554 19.4091Z" fill="#363636"/>
<path d="M74.4357 18.1611C74.7121 17.7472 75.0143 17.6835 75.3422 17.9699C76.1813 18.7045 76.936 19.3883 77.6061 20.0212C78.4152 20.7873 79.2651 21.8219 80.1558 23.125C80.3749 23.4472 80.3398 23.7673 80.0505 24.0852C80.0047 24.1353 79.9467 24.1697 79.8765 24.1883C79.51 24.2828 79.2594 24.2492 79.1247 24.0873C77.7858 22.4706 76.3209 20.9298 74.73 19.4649C74.3763 19.1384 74.2668 18.7281 74.4014 18.2341C74.4085 18.2083 74.42 18.184 74.4357 18.1611Z" fill="#363636"/>
<path d="M12.6921 23.1122C12.4272 23.4015 12.173 23.7201 11.9296 24.068C11.8866 24.1282 11.8293 24.1683 11.7577 24.1883C11.2852 24.3172 10.9437 24.212 10.7332 23.8726C10.6902 23.801 10.6752 23.7236 10.6881 23.6406C10.7482 23.2611 10.9036 22.916 11.1542 22.6053C11.4792 22.2043 11.8057 21.7948 12.1336 21.3766C12.6033 20.7752 13.1332 20.231 13.7231 19.7442C14.4126 19.1728 15.0205 18.5284 15.6971 17.9936C15.9935 17.7587 16.2735 17.7759 16.537 18.0451C16.7303 18.2399 16.7811 18.542 16.6895 18.9516C16.6532 19.1124 16.5685 19.2585 16.4468 19.3704C15.0778 20.6248 13.8262 21.8721 12.6921 23.1122Z" fill="#363636"/>
<path d="M84.0892 24.1733C84.914 25.5888 85.5605 27.1912 86.4476 28.5895C87.0018 29.4659 87.1178 30.4002 86.6281 31.3174C86.482 31.5895 86.3717 31.5759 86.2973 31.2766C86.0553 30.2986 85.6171 29.3356 84.9827 28.3876C84.5546 27.7475 84.1715 27.053 83.8335 26.3041C83.2407 24.9938 82.519 23.806 81.8703 22.5408C81.46 21.7375 80.5278 21.0566 79.8985 20.4165C79.8197 20.3363 79.8362 20.289 79.9479 20.2747C81.8832 20.0449 82.9529 21.3831 83.5715 23.0714C83.7133 23.4566 83.8858 23.8239 84.0892 24.1733Z" fill="#363636"/>
<path d="M7.66374 22.848C8.25658 21.3487 9.31339 20.0664 11.0919 20.3134C11.2007 20.3277 11.2165 20.3735 11.1392 20.4508C10.5077 21.0716 9.60766 21.7761 9.19954 22.5687C8.8215 23.3034 8.42484 24.0301 8.00957 24.7489C7.57568 25.5029 7.27926 26.3255 6.8604 27.0988C6.42222 27.9036 5.97186 28.6847 5.50933 29.4423C5.12484 30.0716 4.8993 30.8105 4.69739 31.515C4.69195 31.5341 4.68125 31.5512 4.66651 31.5644C4.65177 31.5777 4.6336 31.5865 4.61408 31.5898C4.59456 31.5932 4.57449 31.591 4.55617 31.5835C4.53785 31.5759 4.52203 31.5634 4.51052 31.5473C3.93272 30.7289 4.01864 29.4745 4.56207 28.7055C4.73964 28.4535 4.89787 28.1921 5.03677 27.9215C5.67257 26.6843 6.29692 25.5229 6.90981 24.4375C7.19191 23.9377 7.44322 23.4079 7.66374 22.848Z" fill="#363636"/>
<path d="M13.1907 25.2859C13.3798 24.9437 13.48 24.5434 13.4914 24.0852C13.4929 24.0087 13.5202 23.9352 13.5688 23.8768L14.1917 23.1208C14.216 23.0907 14.2354 23.0936 14.2497 23.1293C14.7122 24.3694 14.6456 25.4434 14.0499 26.3513C13.384 27.363 12.8728 28.5014 12.2757 29.5711C12.0093 30.0501 11.8805 30.5678 11.6249 31.0597C11.1165 32.0363 10.3955 32.564 9.46185 32.6427C9.44272 32.6444 9.42347 32.6409 9.40621 32.6325C9.38895 32.624 9.37432 32.611 9.36392 32.5949C9.35352 32.5787 9.34774 32.56 9.34721 32.5408C9.34667 32.5216 9.35141 32.5026 9.3609 32.4859C10.3468 30.7783 11.3499 29.1329 12.1576 27.3501C12.4855 26.627 12.8299 25.9389 13.1907 25.2859Z" fill="#363636"/>
<path d="M77.8941 25.3117C78.2392 25.9203 78.5678 26.5625 78.88 27.2384C79.2065 27.9458 79.5251 28.5802 79.8358 29.1415C80.4416 30.2398 81.0501 31.3396 81.6616 32.4408C81.7389 32.5797 81.6988 32.6406 81.5413 32.6234C80.4158 32.5052 79.5888 31.5902 79.1914 30.5248C79.0855 30.2413 78.9559 29.9513 78.8027 29.6549C78.2685 28.6224 77.7201 27.615 77.1573 26.6327C76.47 25.4363 76.3325 24.5148 76.659 23.2453C76.6848 23.1451 76.7363 23.1293 76.8136 23.1981C77.1831 23.5267 77.6041 23.8468 77.6256 24.4031C77.6385 24.7167 77.728 25.0196 77.8941 25.3117Z" fill="#363636"/>
<path d="M5.23276 39.1962C5.19672 39.2895 5.12517 39.3647 5.03378 39.4054C4.94239 39.446 4.83861 39.4488 4.74517 39.4131L4.43372 39.295C4.19961 39.2044 4.0602 38.8961 4.0461 38.4377C4.03201 37.9794 4.14438 37.4086 4.35854 36.8506L6.12202 32.2539C6.33643 31.6955 6.63521 31.1958 6.95263 30.8647C7.27006 30.5335 7.58012 30.3982 7.81462 30.4883L8.12608 30.6064C8.21939 30.6425 8.29462 30.714 8.33528 30.8054C8.37594 30.8968 8.37873 31.0006 8.34302 31.094L5.23276 39.1962Z" fill="#363636"/>
<path d="M85.0811 32.8919C85.8401 34.5745 86.4651 36.3795 86.9563 38.3069C87.002 38.4826 86.9814 38.6698 86.8983 38.8332C86.5718 39.4647 85.6654 39.7031 85.4141 38.8353C84.9487 37.2272 84.426 35.68 83.846 34.1936C83.6892 33.7919 83.6613 33.3301 83.4594 32.9542C83.1501 32.3714 82.9418 31.863 82.8344 31.4291C82.7184 30.9709 82.9074 30.6286 83.4014 30.4024C83.4418 30.3836 83.4858 30.3738 83.5303 30.3738C83.5748 30.3738 83.6188 30.3836 83.6592 30.4024C83.8611 30.4969 84.0079 30.6372 84.0995 30.8234C84.436 31.4993 84.7632 32.1888 85.0811 32.8919Z" fill="#363636"/>
<path d="M84.6602 39.3659C84.9308 40.3346 85.9146 40.762 86.821 40.3883C88.2043 39.8169 87.8606 38.5733 87.9401 37.3876C87.9458 37.3074 87.9845 37.2859 88.0561 37.3231C88.3325 37.4635 88.5272 37.6496 88.6404 37.8816C89.2003 39.0372 89.1308 40.0826 88.432 41.0177C88.0926 41.473 87.6666 41.7537 87.154 41.8597C85.9382 42.1153 84.0415 42.0358 83.5969 40.5558C83.3162 39.6165 83.3528 38.821 83.7065 38.1694C83.7448 38.0994 83.8077 38.046 83.883 38.0195C83.9583 37.9929 84.0408 37.9951 84.1146 38.0255C84.5399 38.2017 84.5528 38.9749 84.6602 39.3659Z" fill="#363636"/>
<path d="M3.13846 38.932C3.25445 40.848 6.02748 41.1487 6.41841 39.2263C6.49789 38.831 6.59884 38.2769 6.90171 37.989C6.92925 37.9628 6.96223 37.9431 6.99833 37.9311C7.03443 37.9192 7.07278 37.9153 7.11066 37.9198C7.14855 37.9243 7.18505 37.9371 7.21761 37.9572C7.25016 37.9773 7.27797 38.0043 7.29908 38.0363C7.86185 38.8955 7.69431 40.0017 7.32271 40.8845C6.77712 42.1754 4.09216 42.257 3.13846 41.4687C1.99789 40.5279 1.89264 38.8697 2.69383 37.7227C2.98882 37.3002 3.13059 37.3468 3.11913 37.8623C3.11054 38.2088 3.11698 38.5654 3.13846 38.932Z" fill="#363636"/>
<path d="M32.6277 41.4795C31.3089 41.8188 30.242 41.4694 29.4272 40.4313C29.6292 40.4241 29.7638 40.3432 29.8311 40.1885C29.9528 39.9122 30.1039 39.6866 30.2843 39.5119C30.3088 39.4879 30.3401 39.4722 30.374 39.4668C30.4079 39.4614 30.4426 39.4667 30.4733 39.4819C31.0432 39.764 31.659 39.978 32.3206 40.1241C32.3559 40.1317 32.3881 40.15 32.4127 40.1765C32.4373 40.203 32.4531 40.2365 32.458 40.2723L32.6277 41.4795Z" fill="#F7F8F4"/>
<path d="M88.4193 43.473L88.443 45.077C86.7541 44.7063 85.0969 44.7079 83.4773 45.0862L83.4716 43.5767C85.0506 43.969 86.8646 43.9942 88.4193 43.473ZM83.4783 45.3683L83.4783 45.3658L83.4783 45.3683Z" fill="#363636" stroke="black"/>
<path d="M7.53515 43.5793C7.68491 43.5445 7.83524 43.5066 7.98614 43.4656L7.89439 43.1278L7.89419 43.127L7.89375 43.1254L7.89358 43.1248L7.89318 43.1233L7.8551 42.9831L7.89303 43.1233L7.89343 43.1248L7.89362 43.1255L7.89407 43.1272L7.89432 43.1281L7.98566 43.4657C7.93394 43.4797 7.8796 43.4817 7.82679 43.4713C7.77395 43.4609 7.7237 43.4383 7.68023 43.4048C7.6367 43.3713 7.60114 43.3277 7.57693 43.2772C7.55341 43.2281 7.54145 43.1741 7.54203 43.1195C7.54205 43.1179 7.54206 43.1163 7.5421 43.1147L7.54203 43.1195L7.53515 43.5793ZM7.53515 43.5793L7.51328 45.0415M7.53515 43.5793C5.791 43.9849 4.12457 43.9724 2.54529 43.5295M7.51328 45.0415L2.54529 43.5295M7.51328 45.0415C5.75483 44.7096 4.09525 44.7174 2.5409 45.0764M2.54529 43.5295L2.5409 45.0764M2.54529 43.5295L2.5409 45.0764" fill="#363636" stroke="black"/>
<path d="M6.553 49.5773C6.03319 47.9406 3.3203 48.4196 3.1678 49.994C3.12054 50.4823 3.11195 51.0043 3.14202 51.5599C3.14275 51.5769 3.1386 51.5936 3.13003 51.6083C3.12147 51.6229 3.10885 51.6348 3.09361 51.6427C3.07837 51.6505 3.06113 51.654 3.04386 51.6526C3.02659 51.6513 3.00999 51.6452 2.99596 51.6351C1.91983 50.8146 1.90909 49.2959 2.45897 48.2241C3.1098 46.9547 4.77233 46.8559 6.00097 47.1244C6.92603 47.3248 7.46947 47.8475 7.63128 48.6924C7.78307 49.4857 7.94274 50.2461 8.11028 50.9735C8.14234 51.1139 8.14178 51.2598 8.10864 51.3998C8.07549 51.5398 8.01065 51.6703 7.91911 51.7812L7.72579 52.0174C7.49525 52.2967 7.33271 52.2616 7.2382 51.9122C7.02054 51.1103 6.79214 50.332 6.553 49.5773Z" fill="#363636"/>
<path d="M86.4517 48.6172C84.3123 48.3315 84.2199 50.4322 83.8247 51.8714C83.7388 52.1893 83.5841 52.2272 83.3607 51.9852L83.1932 51.8069C83.0966 51.7024 83.0271 51.5759 82.9907 51.4385C82.9544 51.301 82.9524 51.1569 82.9848 51.0186C83.1782 50.1752 83.3593 49.326 83.5283 48.4711C83.6357 47.9255 83.9185 47.5539 84.3767 47.3563C86.1166 46.6024 88.5545 46.9289 88.9712 49.1134C89.1846 50.2274 88.8767 51.0866 88.0476 51.6909C88.0346 51.7008 88.019 51.7067 88.0027 51.7079C87.9864 51.7092 87.9701 51.7058 87.9556 51.6981C87.9412 51.6905 87.9293 51.6789 87.9212 51.6646C87.9131 51.6504 87.9093 51.6342 87.9101 51.6179C87.966 50.4279 88.0519 48.8298 86.4517 48.6172Z" fill="#363636"/>
<path d="M6.65237 58.0983C5.29628 55.4176 4.44783 52.974 4.10702 50.7673C4.05833 50.4465 4.19008 50.1565 4.50225 49.8974C4.57385 49.8372 4.65475 49.8057 4.74497 49.8028C5.22039 49.7842 5.51466 50.0062 5.62778 50.4687C6.22062 52.8816 7.0032 55.2429 7.97552 57.5527C8.06716 57.769 7.97337 58.0074 7.69413 58.268C7.52946 58.4227 7.30678 58.4656 7.02611 58.3969C6.94596 58.3774 6.87099 58.3405 6.80644 58.289C6.74189 58.2374 6.68931 58.1723 6.65237 58.0983Z" fill="#363636"/>
<path d="M83.1328 57.3895C84.0779 55.0983 84.844 52.7549 85.4311 50.3592C85.5485 49.8795 85.8471 49.7019 86.3268 49.8265C86.6232 49.9038 86.8151 50.2224 86.9025 50.7823C86.9153 50.8705 86.9131 50.9598 86.896 51.0465C86.4091 53.5339 85.565 55.9146 84.3636 58.1885C84.329 58.2541 84.2818 58.3122 84.2247 58.3594C84.1675 58.4066 84.1016 58.4421 84.0307 58.4636C83.9598 58.4852 83.8853 58.4925 83.8115 58.4851C83.7378 58.4777 83.6662 58.4558 83.601 58.4205L83.4765 58.3539C83.0712 58.1363 82.9566 57.8148 83.1328 57.3895Z" fill="#363636"/>
<path d="M33.0488 50.8446C33.1934 50.8962 33.2557 50.9986 33.2356 51.1518L33.0123 52.911C33.009 52.9364 33.0005 52.9609 32.9872 52.9828C32.9739 53.0047 32.9561 53.0236 32.9351 53.0381C32.914 53.0527 32.8901 53.0627 32.8649 53.0675C32.8397 53.0722 32.8138 53.0716 32.7889 53.0656C31.3368 52.7205 30.0158 52.4943 28.8259 52.3869C28.6512 52.3711 28.6175 52.2938 28.7249 52.1549C29.8819 50.6585 31.3232 50.2217 33.0488 50.8446Z" fill="#AEAEAE"/>
<path d="M57.907 50.8639C59.6404 50.125 61.3459 50.7071 62.364 52.2515C62.3711 52.2627 62.375 52.2755 62.3755 52.2887C62.376 52.3019 62.373 52.3149 62.3669 52.3264C62.3607 52.3379 62.3516 52.3473 62.3405 52.3538C62.3294 52.3603 62.3167 52.3636 62.3039 52.3632C61.8771 52.3561 61.4669 52.394 61.0731 52.4771C60.065 52.6919 59.0919 52.8838 58.154 53.0527C58.1411 53.0549 58.1279 53.0543 58.1154 53.0509C58.1028 53.0474 58.0911 53.0413 58.0811 53.033C58.0711 53.0246 58.063 53.0142 58.0574 53.0024C58.0518 52.9906 58.0489 52.9777 58.0487 52.9647C58.053 52.3045 57.9814 51.653 57.8339 51.01C57.8168 50.9413 57.8411 50.8926 57.907 50.8639Z" fill="#AEAEAE"/>
<path d="M39.3419 54.6057C39.3935 55.0539 39.4486 55.4864 39.5073 55.9031C39.7565 57.6559 39.4665 59.284 38.6374 60.7876C38.3453 61.3181 37.8255 61.7778 37.4281 62.2998L33.319 57.7439C33.2517 57.6709 33.2582 57.6043 33.3383 57.5442C33.624 57.3251 33.8947 57.1704 34.1395 56.8804C34.9021 55.974 35.6775 55.1857 35.6646 54.0258C35.6546 53.1924 35.6281 52.3876 35.5851 51.6115C35.5794 51.5041 35.6152 51.4883 35.6925 51.5642C36.8252 52.7041 38.0417 53.7179 39.3419 54.6057Z" fill="#F7F8F4"/>
<path d="M54.0686 60.547C54.0314 60.5084 53.9999 60.4568 53.9741 60.3924C54.05 60.2821 54.0213 60.5112 53.9139 60.358C53.8308 60.2391 53.6347 59.8368 53.5917 59.7136C53.3053 58.8773 52.9187 58.0267 52.6251 57.136C52.5865 57.0186 52.7963 56.9284 52.7691 57.0501C52.7591 57.0945 52.7591 57.1568 52.7691 57.237C52.4612 56.3606 52.26 55.3697 52.1655 54.2642L55.0717 52.0153C55.1433 51.9594 55.1784 51.9773 55.177 52.069C55.1641 52.6948 55.1677 53.3971 55.1877 54.1761C55.2242 55.4971 56.2424 56.5346 57.0908 57.4496C57.151 57.5141 57.1517 57.5792 57.093 57.6451C56.3627 58.4699 55.7791 59.0621 55.3424 59.4215C54.7137 59.9399 54.2892 60.315 54.0686 60.547Z" fill="#5C5C5C"/>
<path d="M63.2551 59.3828C64.0026 58.2122 64.6706 56.0492 62.7675 55.5508C61.9541 55.336 61.1279 55.1005 60.2887 54.8441C60.1999 54.8169 60.1541 54.7568 60.1513 54.6637C60.1298 53.8475 61.0341 53.5296 61.6913 53.5854C63.1348 53.7057 65.4052 54.711 65.5255 56.3907C65.6343 57.8971 64.9276 58.9546 63.4054 59.5632C63.1677 59.6592 63.1176 59.599 63.2551 59.3828Z" fill="#AEAEAE"/>
<path d="M27.2533 61.5415C27.2418 61.6131 27.1659 61.6289 27.0256 61.5888C26.3296 61.2236 25.8922 60.943 25.7132 60.7468C24.3585 59.2604 24.1924 57.7232 25.2148 56.1351C25.4167 55.8215 25.6974 55.5594 26.0568 55.3489C27.1265 54.7217 28.1146 54.0258 29.3024 53.7766C30.1058 53.6091 31.1046 53.9141 31.3924 54.7819C31.4225 54.8692 31.391 54.9165 31.2979 54.9236C30.4902 54.9924 29.5981 55.21 28.6215 55.5766C27.6786 55.931 26.6669 56.657 26.2072 57.5656C25.3888 59.1831 26.4284 60.2313 27.2533 61.5415Z" fill="#AEAEAE"/>
<path d="M52.1659 54.2642C52.2605 55.3697 52.4616 56.3606 52.7695 57.237C53.0616 58.321 53.4633 59.3728 53.9745 60.3924C54.0003 60.4568 54.0318 60.5084 54.069 60.547C54.0662 60.6158 54.0497 60.663 54.0196 60.6888C52.8182 61.7485 51.7199 62.9076 50.7247 64.1664C50.6803 64.2236 50.6223 64.2587 50.5507 64.2716C50.4619 64.2874 50.3738 64.2959 50.2865 64.2974C46.5877 64.3103 42.8817 64.3103 39.1686 64.2974C39.1334 64.2974 39.0988 64.2881 39.0683 64.2704C39.0377 64.2527 39.0123 64.2272 38.9946 64.1964C38.5779 63.4747 38.0559 62.8425 37.4287 62.2998C37.8261 61.7778 38.3459 61.3181 38.638 60.7876C39.4671 59.284 39.7571 57.6559 39.5079 55.9031C39.4492 55.4864 39.3941 55.0539 39.3426 54.6057C40.2519 55.1069 40.8841 55.3926 41.2392 55.4628C41.9065 55.5945 42.5724 55.722 43.2368 55.8451C44.9853 56.1716 46.4681 56.1866 47.6853 55.8902C48.6153 55.6625 49.5862 55.5143 50.4347 55.132C50.9831 54.8843 51.5602 54.595 52.1659 54.2642ZM46.3041 58.8931C46.3041 58.655 46.2095 58.4266 46.0412 58.2582C45.8728 58.0898 45.6444 57.9952 45.4063 57.9952C45.1682 57.9952 44.9398 58.0898 44.7714 58.2582C44.603 58.4266 44.5084 58.655 44.5084 58.8931C44.5084 59.1312 44.603 59.3596 44.7714 59.528C44.9398 59.6963 45.1682 59.7909 45.4063 59.7909C45.6444 59.7909 45.8728 59.6963 46.0412 59.528C46.2095 59.3596 46.3041 59.1312 46.3041 58.8931Z" fill="#DEDEDE"/>
<path d="M46.3041 58.8931C46.3041 58.655 46.2095 58.4266 46.0412 58.2582C45.8728 58.0898 45.6444 57.9952 45.4063 57.9952C45.1682 57.9952 44.9398 58.0898 44.7714 58.2582C44.603 58.4266 44.5084 58.655 44.5084 58.8931C44.5084 59.1312 44.603 59.3596 44.7714 59.528C44.9398 59.6963 45.1682 59.7909 45.4063 59.7909C45.6444 59.7909 45.8728 59.6963 46.0412 59.528C46.2095 59.3596 46.3041 59.1312 46.3041 58.8931Z" fill="#DEDEDE"/>
<path d="M77.1805 62.9721C77.7454 62.0463 78.1686 60.9938 78.7399 60.0487C78.9247 59.7451 79.0836 59.4193 79.2168 59.0714C79.713 57.7869 80.3359 56.4873 81.7858 56.0857C81.8045 56.0805 81.8242 56.0807 81.8428 56.0862C81.8614 56.0918 81.878 56.1025 81.8908 56.1171C81.9036 56.1316 81.912 56.1495 81.9151 56.1687C81.9181 56.1878 81.9158 56.2074 81.9082 56.2253C81.3433 57.5227 80.7354 58.8329 80.0309 60.0637C79.6657 60.701 79.3249 61.3876 79.0084 62.1236C78.7134 62.8124 78.2889 63.6473 77.7347 64.6282C77.6173 64.8372 77.5306 65.11 77.4748 65.4465C77.4633 65.521 77.4347 65.589 77.3889 65.6506L76.9034 66.2842C76.8966 66.2935 76.8873 66.3007 76.8767 66.3051C76.8661 66.3096 76.8545 66.3111 76.8431 66.3096C76.8318 66.3081 76.821 66.3035 76.8119 66.2964C76.8029 66.2893 76.7959 66.2799 76.7917 66.2692C76.3514 65.0728 76.5082 64.074 77.1805 62.9721Z" fill="#363636"/>
<path d="M13.4677 65.0943C13.3452 64.3833 12.7825 63.6165 12.4366 62.9656C11.9791 62.1086 11.6999 61.1957 11.2037 60.3644C10.4283 59.0671 9.78605 57.6559 9.12233 56.3112C9.04071 56.1465 9.08939 56.0821 9.26839 56.1179C10.5872 56.3843 11.2402 57.5699 11.7149 58.7169C11.9154 59.2024 12.1359 59.6771 12.3765 60.1411C12.9293 61.205 13.4491 62.1845 13.9359 63.0795C14.3054 63.7582 14.508 64.2437 14.5438 64.5358C14.6082 65.0699 14.551 65.6327 14.372 66.2241C14.3448 66.3143 14.2939 66.3308 14.2195 66.2735C13.7999 65.9542 13.5493 65.5611 13.4677 65.0943Z" fill="#363636"/>
<path d="M36.492 65.4788C36.3345 65.463 36.1763 65.3721 36.0173 65.206C35.4173 64.5845 34.9039 64.0346 34.4772 63.5563C33.3495 62.2933 32.4538 61.3611 31.4872 60.2485C31.1693 59.8812 30.772 59.6599 30.4712 59.2604C29.9901 58.6203 29.4782 58.0017 28.9354 57.4045C28.9111 57.0952 29.0765 56.8819 29.4316 56.7645C29.7223 56.6671 29.9658 56.7358 30.1619 56.9707C31.0383 58.021 32.0027 59.0907 33.0037 60.096C33.5106 60.6029 34.0018 61.1542 34.4772 61.7499C35.05 62.4688 35.8942 63.3759 37.0097 64.4714C37.0627 64.5244 37.0584 64.5716 36.9968 64.6131C36.7519 64.7764 36.5837 65.0649 36.492 65.4788Z" fill="#AEAEAE"/>
<path d="M52.0387 65.4745L53.0267 65.4723C53.0969 65.4723 53.1606 65.4516 53.2179 65.41C53.7348 65.0334 54.0678 64.5401 54.2167 63.9301C54.357 63.6995 54.3993 63.5248 54.3434 63.406C54.2475 63.3158 54.1931 63.2134 54.1802 63.0988C54.9105 62.3571 55.6508 61.6232 56.4012 60.8971C56.6131 60.6938 56.8107 60.4697 56.994 60.2248C57.2303 59.9112 57.6212 59.6986 57.9091 59.4065C58.7897 58.5143 59.6632 57.6716 60.5296 56.8783C60.7601 56.6664 61.02 56.6227 61.3093 56.7473L61.436 56.801C61.7797 56.9485 61.8348 57.1676 61.6014 57.4582C60.1451 59.2754 58.2871 60.7017 56.7621 62.4587C55.7138 63.6673 54.6807 64.805 53.6625 65.8719C53.3017 66.2485 52.8871 66.5871 52.4189 66.8878C52.3544 66.9294 52.3057 66.915 52.2728 66.8449C52.0709 66.4239 51.695 65.9363 52.0387 65.4745Z" fill="#AEAEAE"/>
<path d="M86.6899 60.5255C85.9209 61.8981 85.2959 63.3974 84.5054 64.7291C83.7815 65.947 83.5431 67.7427 81.6465 67.601C81.6303 67.5999 81.6146 67.5945 81.6012 67.5853C81.5878 67.5762 81.5772 67.5635 81.5704 67.5488C81.5635 67.5341 81.5608 67.5178 81.5625 67.5016C81.5642 67.4855 81.5702 67.4701 81.5799 67.457C82.3288 66.4203 82.9811 65.3255 83.5367 64.1728C84.1997 62.8024 84.9014 61.4069 85.6417 59.9864C85.8837 59.5224 86.0505 59.0592 86.1422 58.5967C86.2381 58.1212 86.324 57.6172 86.3999 57.0845C86.4022 57.0683 86.4092 57.0532 86.42 57.0409C86.4307 57.0286 86.4449 57.0198 86.4606 57.0154C86.4764 57.0111 86.4931 57.0115 86.5086 57.0165C86.5241 57.0215 86.5379 57.031 86.5481 57.0437C86.9577 57.5735 87.1725 58.185 87.1925 58.878C87.2068 59.352 87.0393 59.9012 86.6899 60.5255Z" fill="#363636"/>
<path d="M9.40762 67.6224C7.56681 67.689 7.27469 66.0201 6.56156 64.7506C5.75607 63.3201 5.04939 61.8401 4.31908 60.3752C4.02695 59.7895 3.88805 59.2675 3.90237 58.8093C3.92099 58.1721 4.10285 57.6222 4.44796 57.1597C4.53244 57.048 4.58113 57.0616 4.59402 57.2005C4.69282 58.1864 4.95058 58.9726 5.43817 59.922C5.8692 60.7611 6.29879 61.6002 6.72695 62.4394C6.73555 62.4551 7.01908 63.0444 7.57755 64.2072C8.13173 65.3613 8.77111 66.4389 9.49569 67.4399C9.50782 67.457 9.51517 67.4771 9.51697 67.498C9.51877 67.5189 9.51494 67.5398 9.5059 67.5586C9.49686 67.5773 9.48294 67.5932 9.46563 67.6044C9.44832 67.6157 9.42827 67.6219 9.40762 67.6224Z" fill="#363636"/>
<path d="M61.8637 61.4384C62.3655 61.4384 62.7723 61.0316 62.7723 60.5298C62.7723 60.028 62.3655 59.6213 61.8637 59.6213C61.3619 59.6213 60.9551 60.028 60.9551 60.5298C60.9551 61.0316 61.3619 61.4384 61.8637 61.4384Z" fill="#AEAEAE"/>
<path d="M29.2271 59.6792L29.7491 59.9649C29.7918 59.9879 29.8263 60.0236 29.8479 60.0671C29.8694 60.1106 29.8769 60.1597 29.8694 60.2076L29.7706 60.8112C29.7635 60.8546 29.7443 60.8951 29.7153 60.9281C29.6862 60.9611 29.6485 60.9853 29.6063 60.9979C29.5642 61.0104 29.5194 61.0108 29.477 60.9991C29.4346 60.9874 29.3964 60.9639 29.3667 60.9315L28.5612 60.0422C28.531 60.0087 28.5111 59.9672 28.504 59.9227C28.4968 59.8782 28.5026 59.8325 28.5208 59.7912C28.5389 59.7499 28.5686 59.7147 28.6063 59.6899C28.6439 59.6651 28.688 59.6517 28.7331 59.6513H29.1154C29.1544 59.6512 29.1928 59.6608 29.2271 59.6792Z" fill="#AEAEAE"/>
<path d="M63.4296 64.4735C63.4841 63.9265 63.4125 63.3623 63.2148 62.7809L65.5454 60.0186C65.5812 59.9757 65.6055 59.9814 65.6184 60.0358C66.111 62.0005 65.3814 63.4797 63.4296 64.4735Z" fill="#AEAEAE"/>
<path d="M71.7618 64.2737L67.6721 62.1215L67.5754 62.1086C67.5038 62.0986 67.4702 62.0577 67.4745 61.9861L67.5196 60.9401C67.5225 60.8441 67.569 60.8119 67.6592 60.8434C69.9489 61.6353 72.185 62.4759 74.3673 63.3651C74.5163 63.4253 74.5907 63.5356 74.5907 63.6959L74.5886 64.8279C74.5886 64.9167 74.5449 64.9632 74.4575 64.9675C73.8146 65.0076 73.4086 64.9776 73.2396 64.8773C72.77 64.5995 72.2773 64.3983 71.7618 64.2737Z" fill="#363636"/>
<path d="M23.0437 64.5057C21.9854 64.858 20.9566 65.3492 19.957 65.9793C19.0191 65.1258 17.8986 64.785 16.5955 64.9568C16.5781 64.9592 16.5604 64.958 16.5435 64.9531C16.5267 64.9482 16.511 64.9398 16.4976 64.9284C16.4843 64.9171 16.4734 64.903 16.4658 64.8872C16.4583 64.8713 16.4541 64.8541 16.4537 64.8365L16.4279 63.5843C16.4236 63.4325 16.4931 63.3301 16.6363 63.2771L22.9406 60.9551C23.1668 60.8721 23.2291 60.9401 23.1274 61.1592C22.5976 62.2976 22.5697 63.4131 23.0437 64.5057Z" fill="#F7F8F4"/>
<path d="M33.2893 70.6661C33.5793 70.9539 34.3247 71.2289 34.7908 71.2375C34.9741 71.2403 35.0521 71.332 35.0249 71.5124C34.9963 71.7029 34.9361 71.8604 34.8445 71.985C34.6927 72.1897 34.4886 72.2986 34.2323 72.3115C33.4418 72.3501 32.7853 72.1203 32.2626 71.622C31.2531 70.6554 30.3294 69.6093 29.322 68.6169C28.0762 67.3897 26.8698 66.1561 25.7027 64.916C25.4858 64.6862 25.3376 64.4778 25.0819 64.2737C24.3817 63.7131 24.3903 62.6821 24.6158 61.8745C24.643 61.7742 24.6889 61.7656 24.7533 61.8487C25.4793 62.7916 26.1237 63.6315 27.0817 64.4091C27.7461 64.9461 28.5266 65.7222 29.423 66.7375C30.6602 68.1401 31.9791 69.3644 33.2893 70.6661Z" fill="#AEAEAE"/>
<path d="M67.6719 62.1215L71.7616 64.2737L71.6542 64.2995C71.584 64.3153 71.5647 64.3561 71.5962 64.4219C71.6879 64.6024 71.7244 64.7928 71.7058 64.9933C71.7015 65.0477 71.7251 65.0835 71.7767 65.1007L72.0022 65.1737C72.1139 65.2095 72.1218 65.2604 72.0258 65.3262L71.3148 65.8289L69.0015 64.8236C68.9986 64.7964 68.9886 64.7692 68.9714 64.742C68.9599 64.7248 68.9442 64.7126 68.9241 64.7055C68.2583 64.452 67.6024 64.2079 66.9566 63.973C66.8535 63.9343 66.827 63.8663 66.8771 63.769C67.122 63.2921 67.301 62.8045 67.4141 62.3062C67.427 62.2475 67.4635 62.2181 67.5237 62.2181C67.5466 62.2181 67.5681 62.2231 67.5881 62.2332C67.6425 62.2618 67.6719 62.2453 67.6762 62.1838C67.6776 62.1651 67.6762 62.1444 67.6719 62.1215Z" fill="#5C5C5C"/>
<path d="M63.2149 62.7809C63.4125 63.3623 63.4841 63.9265 63.4297 64.4735C62.8469 64.8501 62.2734 64.9382 61.7092 64.7377C60.8099 64.4184 60.2658 63.8033 60.0768 62.8926C60.0735 62.8776 60.0742 62.862 60.0788 62.8473C60.0834 62.8327 60.0917 62.8194 60.103 62.809C60.1143 62.7986 60.1282 62.7913 60.1431 62.7879C60.1581 62.7845 60.1737 62.785 60.1884 62.7895C60.6238 62.9169 61.0555 63.0422 61.4837 63.1654C62.1009 63.343 62.6779 63.2148 63.2149 62.7809Z" fill="#AEAEAE"/>
<path d="M54.1806 63.0988C54.1935 63.2134 54.2781 63.3158 54.374 63.406C53.9902 63.6566 53.948 63.8313 54.2473 63.9301C54.0983 64.5401 53.7352 65.0334 53.2183 65.41C53.161 65.4516 53.0973 65.4723 53.0271 65.4723L52.0391 65.4745C52.2195 64.9676 52.3849 64.6633 52.5352 64.5616C53.1496 64.1477 53.698 63.6602 54.1806 63.0988Z" fill="#AEAEAE"/>
<path d="M54.374 63.406C53.9902 63.6566 53.948 63.8313 54.2473 63.9301L54.4815 63.4726L54.374 63.406Z" fill="#AEAEAE"/>
<path d="M54.6958 69.2828C53.8753 69.9029 53.0003 70.4499 52.071 70.9239C51.4695 71.2289 50.4321 71.5446 50.0089 70.8229C49.6803 70.2623 50.0476 69.8671 50.5481 69.6759C52.0838 69.0895 53.4607 68.4559 54.597 67.2208C55.3889 66.3616 56.1815 65.4537 56.9748 64.4971C57.3414 64.0561 57.7566 63.9415 58.2206 64.1535C59.1206 64.5616 58.3409 65.3757 57.9006 65.7537C57.4309 66.159 56.9991 66.6666 56.6053 67.2766C56.1342 68.0098 55.4977 68.6785 54.6958 69.2828Z" fill="#AEAEAE"/>
<path d="M23.0437 64.5057C23.4962 65.2088 24.0009 65.8482 24.558 66.4239C25.0219 66.9036 25.4451 67.3618 25.8274 67.7986C26.3838 68.4322 27.0346 68.9478 27.6188 69.5492C28.4716 70.4299 29.421 71.3041 30.1685 72.2943C30.4663 72.6881 30.8208 72.9988 31.2317 73.2265C32.6537 74.0084 34.0628 74.3177 35.6673 73.9654C36.2673 73.8337 36.8637 73.7019 37.4566 73.5702C37.5525 73.5487 37.6284 73.5795 37.6842 73.6625C38.7475 75.2327 40.1888 76.2637 42.1091 76.268C44.1597 76.2738 46.337 76.2802 48.641 76.2874C49.9928 76.2917 51.1599 75.8907 52.1422 75.0845C52.4816 74.8067 52.8704 74.3814 53.3086 73.8086C53.3745 73.7213 53.4618 73.6719 53.5706 73.6604C54.8444 73.5272 56.1461 73.4284 57.3618 72.9773C59.2348 72.2828 61.0613 71.3542 62.8413 70.1914C63.4069 69.822 63.9611 69.4711 64.5038 69.1389C65.068 68.7924 65.5986 68.4022 66.0955 67.9683C67.1752 67.0246 68.1439 65.9764 69.0017 64.8236L71.315 65.8289C70.6635 66.489 70.0155 67.1463 69.3711 67.8007C67.7344 69.4633 65.7067 70.3783 65.6186 73.0912C65.6176 73.1175 65.6112 73.1433 65.5997 73.167C65.5883 73.1907 65.5721 73.2117 65.5521 73.2289C65.5322 73.246 65.5089 73.2588 65.4837 73.2666C65.4586 73.2743 65.4321 73.2767 65.406 73.2738C64.0971 73.1248 62.8191 73.331 61.5718 73.8924C60.0081 74.5941 58.5325 75.2205 57.1449 75.7719C55.5353 76.4105 54.273 77.4573 53.358 78.9122C53.3107 78.9881 53.2427 79.0275 53.1539 79.0303L52.1788 79.0497C52.0799 79.0525 51.9998 79.0153 51.9382 78.938C51.5873 78.5026 51.215 78.1933 50.8212 78.01C49.8618 77.5633 48.9546 77.3334 48.0998 77.3205C46.7666 77.3005 45.2902 77.2912 43.6706 77.2926C42.4613 77.2926 41.3208 77.473 40.2446 77.9778C39.8236 78.1754 39.4313 78.489 39.0675 78.9186C38.9974 79.0017 38.9079 79.0432 38.799 79.0432L37.7508 79.0411C37.6749 79.0411 37.6191 79.0081 37.5833 78.9423C36.664 77.3162 35.1432 76.2015 33.2745 75.5162C32.1833 75.1167 31.0384 74.6298 29.8398 74.0556C28.385 73.3582 26.9544 73.0969 25.5482 73.2716C25.5327 73.2734 25.5171 73.272 25.5022 73.2675C25.4873 73.263 25.4734 73.2554 25.4616 73.2454C25.4497 73.2353 25.44 73.2229 25.4331 73.2089C25.4262 73.195 25.4223 73.1798 25.4215 73.1642C25.327 71.2826 24.3926 70.1356 23.048 69.0294C21.9289 68.1079 20.9601 67.0382 19.957 65.9793C20.9566 65.3492 21.9854 64.858 23.0437 64.5057Z" fill="#DEDEDE"/>
<path d="M41.0134 70.8465C39.5212 70.4055 38.0012 70.1535 36.4532 70.0904C35.5038 69.8398 34.6038 69.3057 33.7532 68.4881C32.8153 67.5888 32.0391 66.764 31.4248 66.0136C31.2 65.7387 31.1613 65.4394 31.3088 65.1157C31.359 65.004 31.4284 64.9217 31.5172 64.8687C31.9611 64.6038 32.3535 64.6654 32.6943 65.0535C33.2528 65.685 33.852 66.3272 34.3761 67.0038C35.1816 68.0456 36.2578 68.6964 37.6024 68.9585C38.7022 69.1718 39.7267 69.353 40.6761 69.5019C41.1809 69.5814 41.4387 70.0088 41.2067 70.4749C41.1494 70.5924 41.085 70.7162 41.0134 70.8465Z" fill="#AEAEAE"/>
<path d="M78.6092 69.0702C77.8932 69.7189 77.2359 70.2823 76.6374 70.7606C75.8963 71.3535 74.8266 70.5866 75.3357 69.794C75.7159 69.1991 76.2915 68.9843 76.7684 68.5461C77.4128 67.9532 78.083 67.2695 78.7789 66.4948C78.9493 66.3057 79.0875 66.1074 79.1934 65.8998C79.3868 65.5196 79.7884 64.8236 80.3362 65.0964C81.0944 65.4723 80.9999 66.2628 80.5338 66.8535C80.0111 67.5165 79.4784 68.1465 78.9357 68.7437C78.8355 68.8539 78.7266 68.9628 78.6092 69.0702Z" fill="#363636"/>
<path d="M15.7358 70.5716C15.3005 70.7807 14.9167 70.7506 14.5845 70.4814C14.2809 70.2365 13.9737 70.0052 13.663 69.7876C13.3938 69.5986 13.1432 69.3902 12.9112 69.1625C12.6878 68.942 12.4472 68.7193 12.1895 68.4945C12.0062 68.3356 11.8172 68.1966 11.6224 68.0778C11.2122 67.6568 10.3358 66.7697 10.237 66.0759C10.1167 65.2425 11.1198 64.6239 11.6246 65.4745C11.7921 65.7551 11.974 66.0344 12.1701 66.3122C12.7802 67.1828 13.9372 68.2897 15.6413 69.6329C15.9191 69.852 15.9506 70.1649 15.7358 70.5716Z" fill="#363636"/>
<path d="M55.4647 70.6317C55.4189 70.6718 55.368 70.6546 55.3122 70.5802C55.2965 70.5593 55.2874 70.5342 55.2863 70.5081C55.2851 70.4821 55.2919 70.4562 55.3058 70.4341C55.5277 70.0776 55.7941 69.7568 56.1048 69.4718C56.5172 69.0916 57.0714 69.0508 57.4666 68.6449C58.29 67.7986 59.1714 66.8749 60.1108 65.874C60.201 65.778 60.2998 65.7687 60.4072 65.846L61.1418 66.3766C61.2492 66.4554 61.2657 66.5491 61.1912 66.658C61.0623 66.8441 60.9177 67.0188 60.7573 67.1821C59.6618 68.3019 58.6022 69.2907 57.5783 70.1484C57.0141 70.6224 56.3346 70.7778 55.5399 70.6145C55.5265 70.6119 55.5128 70.612 55.4998 70.615C55.4868 70.6179 55.4748 70.6237 55.4647 70.6317Z" fill="#AEAEAE"/>
<path d="M48.2605 67.3411C47.6175 67.2193 47.2108 67.1542 47.0404 67.1456C45.8419 67.0854 44.3605 67.1255 42.5963 67.2659C42.0392 67.2716 41.4879 67.369 40.9423 67.558C40.8664 67.5838 40.8113 67.5602 40.7769 67.4871C40.5736 67.0518 40.3187 66.6523 40.0123 66.2885C39.9937 66.2661 39.9817 66.2389 39.9779 66.2101C39.9741 66.1812 39.9785 66.1518 39.9906 66.1254C40.0027 66.0989 40.0221 66.0764 40.0464 66.0604C40.0708 66.0444 40.0991 66.0356 40.1283 66.0351C42.7703 66.0022 45.5576 65.9914 48.4903 66.0029C49.4812 66.0072 50.329 66.4461 51.0335 67.3196C51.0451 67.3337 51.0528 67.3506 51.0557 67.3686C51.0586 67.3866 51.0567 67.4051 51.0502 67.4221C51.0436 67.4392 51.0326 67.4542 51.0184 67.4656C51.0041 67.477 50.9871 67.4844 50.9691 67.4871L49.9917 67.6353C49.9202 67.6465 49.8471 67.6368 49.7812 67.6074C49.2915 67.3897 48.7846 67.301 48.2605 67.3411Z" fill="#AEAEAE"/>
<path d="M21.3766 71.8904C20.2095 70.4671 19.0038 69.2778 17.7594 68.3227C17.2009 67.8931 16.4649 67.7556 15.5513 67.9103C15.4639 67.757 15.3444 67.621 15.1926 67.5021C15.131 67.4535 15.1331 67.4076 15.199 67.3647C16.1484 66.7461 17.0771 66.6465 17.9849 67.0661C18.8012 67.4442 19.4112 68.2453 20.1415 68.8468C20.4322 69.0859 20.7021 69.3415 20.9513 69.6136C21.3923 70.0947 21.8899 70.5823 22.4441 71.0764C23.2303 71.7795 23.6176 72.6573 23.6062 73.7098C23.6059 73.7239 23.6016 73.7377 23.5938 73.7495C23.5861 73.7614 23.5751 73.7707 23.5624 73.7764C23.5496 73.7821 23.5356 73.7839 23.522 73.7816C23.5084 73.7793 23.4959 73.773 23.4859 73.7635C23.1401 73.4456 22.8436 73.336 22.5515 72.9129C22.2479 72.4718 21.8563 72.131 21.3766 71.8904Z" fill="#363636"/>
<path d="M75.5073 67.8372C74.8092 67.9081 74.0403 67.8329 73.4646 68.2625C72.1515 69.2377 70.945 70.4284 69.8453 71.8346C69.2066 72.131 68.7326 72.5935 68.4233 73.2222C68.3789 73.3138 68.3088 73.3783 68.2128 73.4155C67.978 73.5072 67.7818 73.6632 67.6243 73.8838C67.557 73.9783 67.5183 73.9675 67.5083 73.8515C67.3107 71.6842 69.0956 70.941 70.2641 69.5384C70.4345 69.3336 70.6293 69.1489 70.8484 68.9842C71.4928 68.4945 72.0706 67.8072 72.6355 67.3733C73.2799 66.8764 73.9665 66.7017 74.6954 66.8492C75.8496 67.0826 76.1202 67.4119 75.5073 67.8372Z" fill="#363636"/>
<path d="M47.2058 69.648H43.6488C43.6049 69.648 43.5693 69.6836 43.5693 69.7275V71.6134C43.5693 71.6573 43.6049 71.6928 43.6488 71.6928H47.2058C47.2497 71.6928 47.2853 71.6573 47.2853 71.6134V69.7275C47.2853 69.6836 47.2497 69.648 47.2058 69.648Z" fill="#DEDEDE"/>
<path d="M76.4826 73.379C77.1077 72.9709 78.0055 72.2685 77.9733 71.5103C77.9661 71.3642 78.0148 71.2396 78.1194 71.1365L79.0129 70.2494C79.1074 70.1549 79.1611 70.1735 79.174 70.3053C79.2728 71.3062 79.275 72.4897 78.448 73.2415C77.4685 74.1337 76.4554 75.0272 75.4086 75.9222C74.7943 76.4463 74.2852 77.1465 73.6365 77.5761C72.564 78.2878 71.4234 78.3243 70.2148 77.6857C70.1967 77.6761 70.1809 77.6628 70.1683 77.6466C70.1557 77.6303 70.1467 77.6116 70.1419 77.5915C70.137 77.5715 70.1364 77.5506 70.1401 77.5302C70.1438 77.5097 70.1517 77.4903 70.1633 77.473C70.391 77.1337 70.6974 76.9955 71.0826 77.0585C71.7506 77.168 72.3134 77.0563 72.8611 76.616C74.1284 75.5936 75.428 74.0706 76.4826 73.379Z" fill="#363636"/>
<path d="M12.1146 72.3888C11.8726 71.7444 11.8017 71.0441 11.9019 70.2881C11.9177 70.1735 11.9664 70.1578 12.048 70.2408C12.3573 70.5566 13.137 71.1258 13.1864 71.5661C13.3046 72.6401 14.69 73.2329 15.3903 73.8945C15.7039 74.1888 16.0389 74.453 16.3289 74.7773C16.6697 75.1597 17.0306 75.532 17.4115 75.8943C18.1482 76.5902 18.8227 77.3141 19.9246 77.0842C20.2747 77.0112 20.6678 77.211 20.8783 77.4795C20.895 77.5006 20.9067 77.5252 20.9125 77.5515C20.9183 77.5778 20.9181 77.6052 20.912 77.6316C20.9058 77.6579 20.8938 77.6826 20.8768 77.7039C20.8598 77.7251 20.8383 77.7424 20.8139 77.7544C19.1728 78.5427 17.7466 78.0959 16.606 76.8265C16.3124 76.5 16.0132 76.1993 15.7082 75.9243C14.7015 75.0165 13.6432 74.0628 12.5335 73.0632C12.3673 72.9143 12.2277 72.6895 12.1146 72.3888Z" fill="#363636"/>
<path d="M41.9304 74.3348C40.8177 74.1652 39.5032 73.3403 39.2454 72.1332C39.224 72.0358 39.2633 71.9878 39.3636 71.9893L40.5858 72.0086C40.6831 72.01 40.7483 72.0566 40.7812 72.1482C40.996 72.7432 41.344 73.1749 42.0464 73.1685C45.2297 73.1356 47.4313 73.1313 48.6514 73.1556C49.2514 73.1685 49.7053 73.0074 50.0132 72.6723C50.0648 72.6165 50.1278 72.5821 50.2022 72.5692L51.5726 72.348C51.6757 72.3322 51.7115 72.3737 51.68 72.4726C51.6127 72.6831 51.5139 72.8728 51.3836 73.0418C50.6848 73.9439 49.6309 74.3971 48.2218 74.4014C46.522 74.4072 44.9469 74.415 43.4963 74.4251C42.8819 74.4294 42.36 74.3993 41.9304 74.3348Z" fill="#AEAEAE"/>
<path d="M70.3522 74.5754C70.8055 75.7482 69.3534 76.6267 68.5823 77.2282C68.3647 77.3986 68.1191 77.5661 67.8456 77.7308C67.2713 78.0773 66.7365 78.4346 66.241 78.8026C65.9246 79.036 65.6396 79.0031 65.3861 78.7038C65.346 78.6566 65.3174 78.6029 65.3002 78.5427C65.1799 78.0945 65.3346 77.7036 65.7642 77.3699C66.8897 76.495 68.0582 75.5399 69.2697 74.5045C69.3842 74.4072 69.5117 74.3298 69.652 74.2726C69.7178 74.2458 69.7883 74.2325 69.8593 74.2333C69.9303 74.2341 70.0004 74.249 70.0656 74.2772C70.1308 74.3054 70.1897 74.3463 70.2389 74.3975C70.2881 74.4487 70.3267 74.5092 70.3522 74.5754Z" fill="#363636"/>
<path d="M22.0358 74.5496C23.1527 75.426 24.2117 76.3389 25.2835 77.2389C25.6157 77.5181 25.7439 77.8711 25.668 78.2978C25.6522 78.3823 25.6157 78.4618 25.5584 78.5363C25.378 78.7654 25.1661 78.7998 24.9226 78.6394C23.7176 77.8489 22.5319 77.1745 21.3656 76.1542C21.0635 75.8893 20.9074 75.5563 20.8973 75.1554C20.8802 74.468 21.4708 74.1072 22.0358 74.5496Z" fill="#363636"/>
<path d="M30.7456 78.3773C29.0415 77.6026 27.2165 76.6876 25.2704 75.6322C24.9267 75.446 24.941 75.2914 25.3134 75.1682C25.4981 75.1067 25.685 75.0616 25.874 75.0329C26.276 74.9701 26.6881 75.0362 27.0511 75.2219L31.2203 77.3506C31.3815 77.4326 31.5598 77.4781 31.7422 77.4838C32.4962 77.5074 33.3124 77.4902 34.0255 77.7845C35.0737 78.2184 35.7375 79.0582 36.0167 80.304C36.0367 80.3928 36.0038 80.4215 35.9179 80.39C35.4754 80.2289 34.7709 80.0398 34.5174 79.6446C34.1265 79.0303 33.364 78.4117 32.595 78.5191C31.9764 78.605 31.3298 78.6415 30.7456 78.3773Z" fill="#363636"/>
<path d="M59.8464 77.3162C61.2597 76.6046 62.5879 75.9265 63.8309 75.2821C64.2361 75.0716 64.6657 74.9886 65.1196 75.033C65.3488 75.0559 65.5857 75.1131 65.8306 75.2048C66.1671 75.3308 66.1779 75.4804 65.8628 75.6537C64.4165 76.447 63.0669 77.1265 61.8139 77.6921C61.3313 77.9098 60.8745 78.1404 60.4435 78.3838C60.2115 78.5141 59.9795 78.5835 59.7476 78.5921C59.3581 78.6065 58.9793 78.5864 58.6113 78.532C57.5609 78.3773 57.0755 78.852 56.4955 79.621C56.154 80.0764 55.5332 80.1902 55.0371 80.4437C55.0222 80.4514 55.0055 80.4546 54.9889 80.4529C54.9723 80.4512 54.9566 80.4447 54.9436 80.4343C54.9306 80.4238 54.9209 80.4098 54.9158 80.3939C54.9107 80.378 54.9103 80.361 54.9146 80.3449C55.4273 78.373 56.7032 77.4415 58.7423 77.5504C59.1275 77.5719 59.4955 77.4938 59.8464 77.3162Z" fill="#363636"/>
<path d="M31.3041 83.8589C31.7981 83.69 32.3387 83.7816 32.9258 84.1339C32.9816 84.1668 32.9845 84.2041 32.9344 84.2456C32.2757 84.8026 31.5626 85.0575 30.795 85.0103C30.3053 84.9802 29.6745 84.7146 28.9026 84.2134C27.8609 83.5389 26.7826 82.8773 25.6742 82.2845C24.291 81.5413 23.0645 80.7788 23.2299 78.9444C23.237 78.8628 23.275 78.8434 23.3437 78.8864C23.5499 79.0138 23.7396 79.1628 23.9129 79.3332C24.6174 80.0184 25.2361 80.7487 26.1038 81.2556C26.9415 81.7453 27.7449 82.1864 28.5139 82.5788C29.068 82.8637 29.5814 83.1766 30.054 83.5174C30.3998 83.7687 30.868 84.0093 31.3041 83.8589Z" fill="#363636"/>
<path d="M49.4308 80.7186C49.2976 80.5482 49.1257 80.4487 48.9152 80.4201C48.7448 80.3971 48.6016 80.3728 48.4856 80.347C48.2995 80.3055 48.1577 80.2833 48.0603 80.2804C45.6074 80.1816 43.7107 80.1823 42.3704 80.2826C42.1112 80.3012 41.895 80.3943 41.7217 80.5618C41.5055 80.705 41.315 80.8317 41.1503 80.942C40.9026 81.1067 40.672 81.1761 40.4587 81.1504C40.2267 81.1232 39.9969 81.1045 39.7692 81.0945C39.6689 81.0902 39.6424 81.0437 39.6897 80.9549C40.0706 80.2317 40.6706 79.6976 41.4897 79.3525C41.9637 79.1535 42.7284 79.0518 43.7837 79.0475C45.2887 79.0432 46.6778 79.0496 47.9508 79.0668C49.4129 79.0883 50.5083 79.7112 51.2372 80.9356C51.2859 81.0172 51.263 81.0623 51.1685 81.0709L50.2599 81.1461C50.1525 81.1547 50.0537 81.1289 49.9634 81.0687L49.4308 80.7186Z" fill="#363636"/>
<path d="M60.9786 83.6012C62.19 82.7678 63.5432 82.1341 64.832 81.3738C65.8931 80.7465 66.6578 79.795 67.6179 79.0991C67.6298 79.0903 67.6437 79.0848 67.6584 79.0831C67.673 79.0814 67.6878 79.0836 67.7013 79.0895C67.7148 79.0954 67.7265 79.1047 67.7353 79.1166C67.744 79.1285 67.7495 79.1424 67.7511 79.157C67.9466 80.9205 66.6814 81.5886 65.3948 82.3146C64.1662 83.0062 63.0041 83.7902 61.812 84.5034C60.5117 85.2809 59.2874 85.1893 58.139 84.2284C58.0616 84.164 58.0674 84.1081 58.1561 84.0609C58.7518 83.7415 59.3003 83.6671 59.8015 83.8375C60.201 83.975 60.6478 83.8289 60.9786 83.6012Z" fill="#363636"/>
<path d="M41.1465 83.8418L37.104 83.2725C37.0381 83.2639 36.9744 83.2725 36.9128 83.2983C36.8255 83.3355 36.7403 83.3298 36.6572 83.2811C36.5799 83.2339 36.4961 83.1995 36.4059 83.178C34.8336 82.7857 33.335 82.3933 31.9102 82.0009C31.7685 81.9608 31.621 81.9107 31.4677 81.8506C31.3976 81.8234 31.3539 81.774 31.3367 81.7024L31.2959 81.5219C31.4527 80.8926 31.9854 80.5897 32.5933 80.7981C33.9408 81.262 35.2174 81.6494 36.4231 81.9601C37.7441 82.2995 39.0844 82.4327 40.4935 82.5251C41.2195 82.5745 41.4988 83.1845 41.1465 83.8418Z" fill="#363636"/>
<path d="M59.4712 82.3103C59.1877 82.1227 58.8218 82.0861 58.3736 82.2007C57.8137 82.3439 57.2638 82.4649 56.7239 82.5637C56.4361 82.6153 56.2063 82.8322 55.9163 82.8924C54.7822 83.1301 53.6452 83.3663 52.5053 83.6012C52.0872 83.6871 51.649 83.7408 51.1908 83.7623C50.7397 83.7852 50.2865 83.8045 49.8311 83.8203C49.4208 83.3134 49.7774 82.611 50.4154 82.5616C51.3189 82.4943 52.1538 82.3955 52.9199 82.2651C54.5996 81.9816 56.3817 81.5241 58.2662 80.8926C58.975 80.6563 59.5915 80.9441 59.6967 81.7281C59.7211 81.91 59.6459 82.104 59.4712 82.3103Z" fill="#363636"/>
<path d="M40.6973 85.5086C40.9035 86.3076 41.5135 86.69 42.3598 86.6835C44.4462 86.6635 46.5419 86.6656 48.6469 86.69C49.4653 86.6986 49.9292 86.284 50.2257 85.573C50.2629 85.4828 50.3302 85.437 50.4276 85.4356L51.6626 85.4205C51.76 85.4191 51.798 85.4656 51.7765 85.5601C51.5638 86.4967 50.7197 87.2506 49.8863 87.6308C49.4653 87.8212 48.9469 87.9107 48.3311 87.8993C46.4137 87.8621 44.5385 87.8635 42.7056 87.9036C41.5457 87.9294 40.5748 87.527 39.793 86.6964C39.4579 86.3384 39.2438 85.9303 39.1507 85.4721C39.1436 85.4363 39.1579 85.4184 39.1937 85.4184L40.607 85.4377C40.6543 85.4391 40.6844 85.4628 40.6973 85.5086Z" fill="#363636"/>
</svg>
